<svg xmlns="http://www.w3.org/2000/svg" xmlns:xlink="http://www.w3.org/1999/xlink" width="1920" zoomAndPan="magnify" viewBox="0 0 1440 809.999993" height="1080" preserveAspectRatio="xMidYMid meet" version="1.0"><defs><clipPath id="a26fbf9458"><path d="M 367.839844 52.398438 L 1072.941406 52.398438 L 1072.941406 757.496094 L 367.839844 757.496094 Z M 367.839844 52.398438 " clip-rule="nonzero"/></clipPath></defs><g clip-path="url(#a26fbf9458)"><path fill="#ffffff" d="M 500.046875 199.292969 C 540.5625 199.292969 573.496094 166.328125 573.496094 125.84375 C 573.496094 85.359375 540.5625 52.398438 500.046875 52.398438 C 459.53125 52.398438 426.597656 85.359375 426.597656 125.84375 C 426.597656 166.328125 459.53125 199.292969 500.046875 199.292969 Z M 500.046875 81.777344 C 524.34375 81.777344 544.117188 101.546875 544.117188 125.84375 C 544.117188 150.140625 524.34375 169.914062 500.046875 169.914062 C 475.75 169.914062 455.976562 150.140625 455.976562 125.84375 C 455.976562 101.546875 475.75 81.777344 500.046875 81.777344 Z M 612.480469 300.035156 C 607.867188 259.34375 575.640625 228.671875 537.5625 228.671875 L 462.558594 228.671875 C 424.484375 228.671875 392.253906 259.34375 387.640625 300.035156 L 368.164062 470.667969 C 366.546875 484.945312 370.953125 499.136719 380.238281 509.535156 C 388.230469 518.496094 398.863281 523.726562 410.410156 524.375 L 426.628906 743.894531 C 427.214844 751.5625 433.589844 757.496094 441.289062 757.496094 L 558.804688 757.496094 C 566.503906 757.496094 572.878906 751.5625 573.496094 743.894531 L 589.710938 524.375 C 601.230469 523.726562 611.894531 518.527344 619.882812 509.535156 C 629.167969 499.105469 633.574219 484.945312 631.960938 470.667969 Z M 597.9375 489.96875 C 596.261719 491.851562 592.589844 495.054688 587.183594 495.054688 L 576.019531 495.054688 C 568.324219 495.054688 561.949219 500.988281 561.359375 508.65625 L 545.144531 728.117188 L 454.949219 728.117188 L 438.703125 508.65625 C 438.117188 500.988281 431.742188 495.054688 424.042969 495.054688 L 412.878906 495.054688 C 407.503906 495.054688 403.832031 491.851562 402.125 489.96875 C 398.394531 485.769531 396.660156 479.953125 397.335938 473.988281 L 416.816406 303.355469 C 419.753906 277.53125 439.410156 258.050781 462.53125 258.050781 L 537.535156 258.050781 C 560.65625 258.050781 580.3125 277.53125 583.25 303.355469 L 602.726562 473.988281 C 603.433594 479.953125 601.667969 485.769531 597.9375 489.96875 Z M 1009.511719 52.398438 L 705.699219 52.398438 C 681.40625 52.398438 661.632812 72.167969 661.632812 96.464844 L 661.632812 625.289062 C 661.632812 649.585938 681.40625 669.359375 705.699219 669.359375 L 779.148438 669.359375 L 779.148438 694.066406 C 779.148438 729.027344 807.617188 757.496094 842.578125 757.496094 C 851.246094 757.496094 859.648438 755.761719 867.582031 752.386719 L 1034.484375 680.847656 C 1057.839844 670.828125 1072.941406 647.941406 1072.941406 622.527344 L 1072.941406 115.828125 C 1072.941406 80.867188 1044.472656 52.398438 1009.511719 52.398438 Z M 779.148438 187.363281 L 779.148438 639.980469 L 705.699219 639.980469 C 697.621094 639.980469 691.011719 633.398438 691.011719 625.289062 L 691.011719 96.464844 C 691.011719 88.355469 697.621094 81.777344 705.699219 81.777344 L 927.894531 81.777344 L 817.605469 129.046875 C 794.25 139.066406 779.148438 161.953125 779.148438 187.363281 Z M 1043.5625 622.527344 C 1043.5625 636.160156 1035.453125 648.472656 1022.90625 653.816406 L 856.003906 725.355469 C 851.773438 727.175781 847.21875 728.117188 842.578125 728.117188 C 823.804688 728.117188 808.527344 712.839844 808.527344 694.066406 L 808.527344 187.363281 C 808.527344 173.734375 816.636719 161.421875 829.183594 156.074219 L 996.085938 84.539062 C 1000.316406 82.714844 1004.867188 81.777344 1009.511719 81.777344 C 1028.285156 81.777344 1043.5625 97.054688 1043.5625 115.828125 Z M 852.597656 375.566406 C 844.488281 375.566406 837.90625 382.148438 837.90625 390.257812 L 837.90625 449.015625 C 837.90625 457.125 844.488281 463.707031 852.597656 463.707031 C 860.707031 463.707031 867.285156 457.125 867.285156 449.015625 L 867.285156 390.257812 C 867.285156 382.148438 860.707031 375.566406 852.597656 375.566406 Z M 852.597656 375.566406 " fill-opacity="1" fill-rule="nonzero"/></g></svg>