<svg width="176" height="41" viewBox="0 0 176 41" fill="none" xmlns="http://www.w3.org/2000/svg">
	<path d="M12.769 1.5036C16.8627 1.5036 20.0867 2.48277 22.4356 4.4411C24.795 6.39943 25.9773 9.10256 25.9773 12.5453C25.9773 15.9776 24.795 18.6807 22.4356 20.6494C20.0867 22.6078 16.8627 23.5869 12.769 23.5869H4.93563V33.1703H0.414795V1.5036H12.769ZM12.6231 19.6494C15.4981 19.6494 17.6856 19.0401 19.1856 17.8161C20.696 16.5974 21.4565 14.8369 21.4565 12.5453C21.4565 10.2432 20.696 8.48277 19.1856 7.27443C17.6856 6.05568 15.4981 5.4411 12.6231 5.4411H4.93563V19.6494H12.6231Z" fill="#FF8D55" fill-opacity="0.4"/>
	<path d="M36.5948 13.212C37.3552 11.8266 38.475 10.7693 39.949 10.0453C41.4333 9.32656 43.2302 8.96198 45.3448 8.96198V13.1703C45.0948 13.1443 44.7615 13.1286 44.3448 13.1286C41.9802 13.1286 40.1261 13.8318 38.7823 15.2328C37.449 16.6391 36.7823 18.6391 36.7823 21.2328V33.1703H32.449V9.19114H36.5948V13.212Z" fill="#FF8D55" fill-opacity="0.4"/>
	<path d="M61.2659 33.4411C58.8752 33.4411 56.7294 32.9151 54.8284 31.8578C52.9221 30.8057 51.4377 29.3526 50.37 27.5036C49.2971 25.6443 48.7659 23.5349 48.7659 21.1703C48.7659 18.8266 49.2971 16.7276 50.37 14.8786C51.4377 13.0193 52.9221 11.5661 54.8284 10.5245C56.7294 9.48281 58.8752 8.96198 61.2659 8.96198C63.6409 8.96198 65.7711 9.48281 67.6617 10.5245C69.5471 11.5661 71.0263 13.0193 72.0992 14.8786C73.1669 16.7276 73.7034 18.8266 73.7034 21.1703C73.7034 23.5349 73.1669 25.6443 72.0992 27.5036C71.0263 29.3526 69.5471 30.8057 67.6617 31.8578C65.7711 32.9151 63.6409 33.4411 61.2659 33.4411ZM61.2659 29.6495C62.7919 29.6495 64.1669 29.2953 65.3909 28.587C66.6096 27.8786 67.568 26.8891 68.2659 25.6078C68.9586 24.3161 69.3075 22.837 69.3075 21.1703C69.3075 19.5193 68.9586 18.0557 68.2659 16.7745C67.568 15.4828 66.6096 14.4932 65.3909 13.7953C64.1669 13.1026 62.7919 12.7536 61.2659 12.7536C59.7242 12.7536 58.3388 13.1026 57.12 13.7953C55.8961 14.4932 54.9325 15.4828 54.2242 16.7745C53.5159 18.0557 53.1617 19.5193 53.1617 21.1703C53.1617 22.837 53.5159 24.3161 54.2242 25.6078C54.9325 26.8891 55.8961 27.8786 57.12 28.587C58.3388 29.2953 59.7242 29.6495 61.2659 29.6495Z" fill="#FF8D55" fill-opacity="0.4"/>
	<path d="M110.698 29.2328V40.0869H106.49V33.1703H80.4272L80.3856 40.0869H76.1772L76.2189 29.2328H77.7606C79.7606 29.1078 81.1616 27.5349 81.9689 24.5036C82.7866 21.4776 83.2866 17.2015 83.4689 11.6703L83.7814 1.5036H106.052V29.2328H110.698ZM87.4481 12.0869C87.2918 16.5453 86.9377 20.2432 86.3856 23.1703C85.8283 26.1026 84.9325 28.1234 83.6981 29.2328H101.573V5.4411H87.6772L87.4481 12.0869Z" fill="#FF8D55" fill-opacity="0.4"/>
	<path d="M126.442 33.4411C124.051 33.4411 121.905 32.9151 120.004 31.8578C118.098 30.8057 116.614 29.3526 115.546 27.5036C114.473 25.6443 113.942 23.5349 113.942 21.1703C113.942 18.8266 114.473 16.7276 115.546 14.8786C116.614 13.0193 118.098 11.5661 120.004 10.5245C121.905 9.48281 124.051 8.96198 126.442 8.96198C128.817 8.96198 130.947 9.48281 132.837 10.5245C134.723 11.5661 136.202 13.0193 137.275 14.8786C138.343 16.7276 138.879 18.8266 138.879 21.1703C138.879 23.5349 138.343 25.6443 137.275 27.5036C136.202 29.3526 134.723 30.8057 132.837 31.8578C130.947 32.9151 128.817 33.4411 126.442 33.4411ZM126.442 29.6495C127.968 29.6495 129.343 29.2953 130.567 28.587C131.785 27.8786 132.744 26.8891 133.442 25.6078C134.134 24.3161 134.483 22.837 134.483 21.1703C134.483 19.5193 134.134 18.0557 133.442 16.7745C132.744 15.4828 131.785 14.4932 130.567 13.7953C129.343 13.1026 127.968 12.7536 126.442 12.7536C124.9 12.7536 123.515 13.1026 122.296 13.7953C121.072 14.4932 120.108 15.4828 119.4 16.7745C118.692 18.0557 118.337 19.5193 118.337 21.1703C118.337 22.837 118.692 24.3161 119.4 25.6078C120.108 26.8891 121.072 27.8786 122.296 28.587C123.515 29.2953 124.9 29.6495 126.442 29.6495Z" fill="#FF8D55" fill-opacity="0.4"/>
	<path d="M172.812 9.1911V33.1703H168.874V15.6494L159.916 30.4619H158.02L149.145 15.6078V33.1703H145.166V9.1911H149.645L159.062 25.3786L168.749 9.1911H172.812Z" fill="#FF8D55" fill-opacity="0.4"/>
	<path d="M15.4086 0.490295C19.5024 0.490295 22.7263 1.46946 25.0753 3.4278C27.4347 5.38613 28.6169 8.08925 28.6169 11.532C28.6169 14.9643 27.4347 17.6674 25.0753 19.6361C22.7263 21.5945 19.5024 22.5736 15.4086 22.5736H7.57528V32.157H3.05444V0.490295H15.4086ZM15.2628 18.6361C18.1378 18.6361 20.3253 18.0268 21.8253 16.8028C23.3357 15.584 24.0961 13.8236 24.0961 11.532C24.0961 9.22988 23.3357 7.46946 21.8253 6.26113C20.3253 5.04238 18.1378 4.4278 15.2628 4.4278H7.57528V18.6361H15.2628Z" fill="#FDFDFD"/>
	<path d="M39.2347 12.1986C39.9951 10.8132 41.1149 9.7559 42.5889 9.03194C44.0732 8.31319 45.8701 7.94861 47.9847 7.94861V12.1569C47.7347 12.1309 47.4014 12.1153 46.9847 12.1153C44.6201 12.1153 42.766 12.8184 41.4222 14.2194C40.0889 15.6257 39.4222 17.6257 39.4222 20.2194V32.1569H35.0889V8.17778H39.2347V12.1986Z" fill="#FDFDFD"/>
	<path d="M63.9058 32.4278C61.5151 32.4278 59.3693 31.9017 57.4683 30.8444C55.562 29.7924 54.0776 28.3392 53.0099 26.4903C51.937 24.6309 51.4058 22.5215 51.4058 20.1569C51.4058 17.8132 51.937 15.7142 53.0099 13.8653C54.0776 12.0059 55.562 10.5528 57.4683 9.51111C59.3693 8.46944 61.5151 7.94861 63.9058 7.94861C66.2808 7.94861 68.411 8.46944 70.3016 9.51111C72.187 10.5528 73.6662 12.0059 74.7391 13.8653C75.8068 15.7142 76.3433 17.8132 76.3433 20.1569C76.3433 22.5215 75.8068 24.6309 74.7391 26.4903C73.6662 28.3392 72.187 29.7924 70.3016 30.8444C68.411 31.9017 66.2808 32.4278 63.9058 32.4278ZM63.9058 28.6361C65.4318 28.6361 66.8068 28.2819 68.0308 27.5736C69.2495 26.8653 70.2078 25.8757 70.9058 24.5944C71.5985 23.3028 71.9474 21.8236 71.9474 20.1569C71.9474 18.5059 71.5985 17.0424 70.9058 15.7611C70.2078 14.4694 69.2495 13.4799 68.0308 12.7819C66.8068 12.0892 65.4318 11.7403 63.9058 11.7403C62.3641 11.7403 60.9787 12.0892 59.7599 12.7819C58.536 13.4799 57.5724 14.4694 56.8641 15.7611C56.1558 17.0424 55.8016 18.5059 55.8016 20.1569C55.8016 21.8236 56.1558 23.3028 56.8641 24.5944C57.5724 25.8757 58.536 26.8653 59.7599 27.5736C60.9787 28.2819 62.3641 28.6361 63.9058 28.6361Z" fill="#FDFDFD"/>
	<path d="M113.338 28.2195V39.0736H109.13V32.157H83.0671L83.0255 39.0736H78.8171L78.8588 28.2195H80.4005C82.4005 28.0945 83.8015 26.5215 84.6088 23.4903C85.4265 20.4643 85.9265 16.1882 86.1088 10.657L86.4213 0.490295H108.692V28.2195H113.338ZM90.088 11.0736C89.9317 15.532 89.5776 19.2299 89.0255 22.157C88.4682 25.0893 87.5723 27.1101 86.338 28.2195H104.213V4.4278H90.3171L90.088 11.0736Z" fill="#FDFDFD"/>
	<path d="M129.082 32.4278C126.691 32.4278 124.545 31.9017 122.644 30.8444C120.738 29.7924 119.253 28.3392 118.186 26.4903C117.113 24.6309 116.582 22.5215 116.582 20.1569C116.582 17.8132 117.113 15.7142 118.186 13.8653C119.253 12.0059 120.738 10.5528 122.644 9.51111C124.545 8.46944 126.691 7.94861 129.082 7.94861C131.457 7.94861 133.587 8.46944 135.477 9.51111C137.363 10.5528 138.842 12.0059 139.915 13.8653C140.983 15.7142 141.519 17.8132 141.519 20.1569C141.519 22.5215 140.983 24.6309 139.915 26.4903C138.842 28.3392 137.363 29.7924 135.477 30.8444C133.587 31.9017 131.457 32.4278 129.082 32.4278ZM129.082 28.6361C130.608 28.6361 131.983 28.2819 133.207 27.5736C134.425 26.8653 135.384 25.8757 136.082 24.5944C136.774 23.3028 137.123 21.8236 137.123 20.1569C137.123 18.5059 136.774 17.0424 136.082 15.7611C135.384 14.4694 134.425 13.4799 133.207 12.7819C131.983 12.0892 130.608 11.7403 129.082 11.7403C127.54 11.7403 126.154 12.0892 124.936 12.7819C123.712 13.4799 122.748 14.4694 122.04 15.7611C121.332 17.0424 120.977 18.5059 120.977 20.1569C120.977 21.8236 121.332 23.3028 122.04 24.5944C122.748 25.8757 123.712 26.8653 124.936 27.5736C126.154 28.2819 127.54 28.6361 129.082 28.6361Z" fill="#FDFDFD"/>
	<path d="M175.452 8.1778V32.157H171.514V14.6361L162.556 29.4486H160.66L151.785 14.5945V32.157H147.806V8.1778H152.285L161.702 24.3653L171.389 8.1778H175.452Z" fill="#FDFDFD"/>
</svg>

