<svg xmlns="http://www.w3.org/2000/svg" width="1920" viewBox="0 0 1440 810" height="1080" version="1.0"><defs><clipPath id="a"><path d="M386.035 196H929v543.059H386.035Zm0 0"/></clipPath><clipPath id="b"><path d="M719 71.555h334.54V406H719Zm0 0"/></clipPath></defs><g clip-path="url(#a)"><path fill="#fff" d="M678.066 238.434c0-14.313 1.461-28.246 4.215-41.723H469.473c-46.016 0-83.438 37.422-83.438 83.441v250.313c0 46.015 37.422 83.437 83.438 83.437V718.2c0 8.137 4.757 15.563 12.14 18.942a20.707 20.707 0 0 0 8.719 1.918c4.883 0 9.723-1.711 13.559-5.004l140.175-120.153h200.88c46.015 0 83.437-37.422 83.437-83.437v-87.653a208.072 208.072 0 0 1-41.719 4.215c-115.187 0-208.598-93.41-208.598-208.593Zm0 0"/></g><g clip-path="url(#b)"><path fill="#fff" d="M886.664 71.555c-92.16 0-166.879 74.718-166.879 166.879 0 92.156 74.719 166.875 166.88 166.875 92.155 0 166.874-74.72 166.874-166.875 0-92.16-74.719-166.88-166.875-166.88Zm62.578 187.738h-41.719v41.719c0 11.511-9.347 20.86-20.859 20.86-11.516 0-20.86-9.349-20.86-20.86v-41.719h-41.718c-11.516 0-20.86-9.348-20.86-20.86 0-11.515 9.344-20.859 20.86-20.859h41.719v-41.722c0-11.512 9.343-20.86 20.86-20.86 11.51 0 20.858 9.348 20.858 20.86v41.722h41.72c11.515 0 20.859 9.344 20.859 20.86 0 11.511-9.344 20.859-20.86 20.859Zm0 0"/></g></svg>