<svg width="42" height="42" viewBox="0 0 42 42" fill="none" xmlns="http://www.w3.org/2000/svg">
	<mask id="mask0_55_65" style="mask-type:alpha" maskUnits="userSpaceOnUse" x="0" y="0" width="42" height="42">
		<path d="M0.739624 0.0625H41.7396V41.0625H0.739624V0.0625Z" fill="white"/>
	</mask>
	<g mask="url(#mask0_55_65)">
		<path d="M40.5157 14.7969L36.4063 14.3594C36.3855 14.3177 36.3698 14.2708 36.349 14.2292L38.948 11.0156C39.3907 10.4687 39.349 9.68229 38.8542 9.1875L32.6146 2.94792C32.1198 2.45312 31.3334 2.41146 30.7865 2.85417L27.573 5.45313C27.5313 5.43229 27.4896 5.41667 27.4427 5.39583L27.0105 1.28646C26.9323 0.593749 26.349 0.0625 25.6511 0.0625H16.8282C16.125 0.0625 15.5417 0.593749 15.4688 1.28646L15.0313 5.39583C14.9896 5.41667 14.9427 5.43229 14.9011 5.45313L11.6875 2.85417C11.1407 2.41146 10.3542 2.45312 9.85942 2.94792L3.62504 9.1875C3.13025 9.68229 3.08858 10.4687 3.52608 11.0156L6.12504 14.2292C6.10942 14.2708 6.08858 14.3177 6.07296 14.3594L1.95837 14.7969C1.26567 14.8698 0.739624 15.4531 0.739624 16.1563V24.974C0.739624 25.6771 1.26567 26.2604 1.95837 26.3333L6.07296 26.7708C6.08858 26.8125 6.10942 26.8594 6.12504 26.901L3.52608 30.1146C3.08858 30.6563 3.13025 31.4479 3.62504 31.9427L9.85942 38.1771C10.3542 38.6771 11.1407 38.7135 11.6875 38.276L14.9011 35.6771C14.9427 35.6979 14.9896 35.7135 15.0313 35.7292L15.4688 39.8438C15.5417 40.5365 16.125 41.0625 16.8282 41.0625H25.6511C26.349 41.0625 26.9323 40.5365 27.0105 39.8438L27.4427 35.7292C27.4896 35.7135 27.5313 35.6979 27.573 35.6771L30.7865 38.276C31.3334 38.7135 32.1198 38.6771 32.6146 38.1771L38.8542 31.9427C39.349 31.4479 39.3855 30.6563 38.948 30.1146L36.349 26.901C36.3698 26.8594 36.3855 26.8125 36.4063 26.7708L40.5157 26.3333C41.2084 26.2604 41.7396 25.6771 41.7396 24.974V16.1563C41.7396 15.4531 41.2084 14.8698 40.5157 14.7969ZM39.0053 23.7448L35.2813 24.1406C34.7552 24.1927 34.3073 24.5521 34.1355 25.0469C33.9636 25.5417 33.7605 26.0313 33.5261 26.5104C33.2969 26.9844 33.3646 27.5521 33.6928 27.9635L36.0521 30.8802L31.5521 35.375L28.6407 33.0208C28.224 32.6875 27.6563 32.625 27.1823 32.8542C26.698 33.0885 26.2084 33.2917 25.724 33.4583C25.224 33.6354 24.8698 34.0833 24.8125 34.6094L24.4167 38.3333H18.0573L17.6615 34.6094C17.6042 34.0833 17.25 33.6354 16.75 33.4583C16.2657 33.2917 15.7761 33.0885 15.2917 32.8542C14.8177 32.625 14.25 32.6875 13.8386 33.0208L10.9219 35.375L6.42712 30.8802L8.78129 27.9635C9.11462 27.5521 9.17712 26.9844 8.94796 26.5104C8.71358 26.0313 8.51046 25.5417 8.33858 25.0469C8.16671 24.5521 7.71879 24.1927 7.19275 24.1406L3.46879 23.7448V17.3854L7.19275 16.9896C7.71879 16.9323 8.16671 16.5781 8.33858 16.0781C8.51046 15.5885 8.71358 15.099 8.94796 14.6198C9.17712 14.1458 9.11462 13.5781 8.78129 13.1667L6.42712 10.25L10.9219 5.75521L13.8386 8.10938C14.25 8.44271 14.8177 8.50521 15.2917 8.27604C15.7761 8.04167 16.2657 7.83854 16.75 7.67188C17.25 7.49479 17.6042 7.04687 17.6615 6.52083L18.0573 2.79688H24.4167L24.8125 6.52083C24.8698 7.04687 25.224 7.49479 25.724 7.67188C26.2084 7.83854 26.698 8.04167 27.1823 8.27604C27.6563 8.50521 28.224 8.44271 28.6407 8.10938L31.5521 5.75521L36.0521 10.25L33.6928 13.1667C33.3646 13.5781 33.2969 14.1458 33.5261 14.6198C33.7605 15.099 33.9636 15.5885 34.1355 16.0781C34.3073 16.5781 34.7552 16.9323 35.2813 16.9896L39.0053 17.3854V23.7448Z" fill="white"/>
	</g>
	<path d="M21.2396 9.401C15.0834 9.401 10.0729 14.4062 10.0729 20.5625C10.0729 26.7239 15.0834 31.7291 21.2396 31.7291C27.3959 31.7291 32.4011 26.7239 32.4011 20.5625C32.4011 14.4062 27.3959 9.401 21.2396 9.401ZM21.2396 28.9948C16.5886 28.9948 12.8073 25.2135 12.8073 20.5625C12.8073 15.9166 16.5886 12.1302 21.2396 12.1302C25.8854 12.1302 29.6667 15.9166 29.6667 20.5625C29.6667 25.2135 25.8854 28.9948 21.2396 28.9948Z" fill="white"/>
</svg>

