<svg xmlns="http://www.w3.org/2000/svg" width="1920" viewBox="0 0 1440 810" height="1080" version="1.0"><path fill="#deb9ff" d="M713.75 66.04a325.333 325.333 0 0 0-21.559.687 326.426 326.426 0 0 0-42.738 5.625 327.409 327.409 0 0 0-21 4.918 327.685 327.685 0 0 0-20.629 6.293 329.377 329.377 0 0 0-20.168 7.644 326.074 326.074 0 0 0-19.617 8.957c-6.441 3.2-12.77 6.61-18.984 10.23a327.466 327.466 0 0 0-18.27 11.465 328.007 328.007 0 0 0-17.469 12.645 325 325 0 0 0-16.597 13.77 328.067 328.067 0 0 0-30.293 30.676 326.779 326.779 0 0 0-25.98 34.402 325.133 325.133 0 0 0-11.235 18.41 326.107 326.107 0 0 0-18.7 38.844 325.872 325.872 0 0 0-13.418 40.969 328.56 328.56 0 0 0-4.652 21.058 326.776 326.776 0 0 0-5.5 64.37 326.26 326.26 0 0 0 3.445 42.973 328.083 328.083 0 0 0 3.84 21.223 329.36 329.36 0 0 0 5.235 20.922 329.501 329.501 0 0 0 6.605 20.531 328.839 328.839 0 0 0 7.946 20.047 325.154 325.154 0 0 0 9.254 19.48 323.659 323.659 0 0 0 10.52 18.829l-46.087 138.219a15.68 15.68 0 0 0-.472 1.777c-.125.601-.215 1.21-.266 1.824-.05.61-.066 1.223-.047 1.836.02.617.078 1.227.172 1.832a15.272 15.272 0 0 0 .98 3.543c.23.566.497 1.121.797 1.656.297.54.625 1.059.985 1.555.359.5.746.973 1.164 1.426.414.453.855.879 1.32 1.281a15.706 15.706 0 0 0 4.734 2.79c.579.21 1.164.39 1.762.534.598.145 1.2.254 1.809.324.61.075 1.222.11 1.836.11a15.191 15.191 0 0 0 4.925-.805l138.22-46.066a328.586 328.586 0 0 0 16.386 9.21 325.848 325.848 0 0 0 16.89 8.255 326.626 326.626 0 0 0 127.441 29.094c6.27.144 12.536.109 18.802-.106a327.184 327.184 0 0 0 74.199-11.184c6.05-1.64 12.05-3.453 17.996-5.441a325.444 325.444 0 0 0 34.906-13.93 326.749 326.749 0 0 0 48.785-28.172 324.23 324.23 0 0 0 15.09-11.207 324.507 324.507 0 0 0 28.13-24.922 328.012 328.012 0 0 0 12.944-13.632 324.466 324.466 0 0 0 12.137-14.356 326.484 326.484 0 0 0 21.7-30.684 326.869 326.869 0 0 0 18.035-32.972 328.679 328.679 0 0 0 7.566-17.211 327.498 327.498 0 0 0 12.102-35.578 325.907 325.907 0 0 0 7.934-36.738 326.905 326.905 0 0 0 3.879-56.2 327.495 327.495 0 0 0-.868-18.777 329.538 329.538 0 0 0-1.95-18.7 323.582 323.582 0 0 0-3.019-18.554 327.175 327.175 0 0 0-4.078-18.351 326.197 326.197 0 0 0-5.133-18.083 326.624 326.624 0 0 0-30.613-68.511 326.38 326.38 0 0 0-21-31.168 326.288 326.288 0 0 0-24.438-28.551 330.694 330.694 0 0 0-13.41-13.176 327.53 327.53 0 0 0-44.457-34.601 324.453 324.453 0 0 0-16.062-9.766 324.148 324.148 0 0 0-16.598-8.828 325.724 325.724 0 0 0-34.578-14.719 325.57 325.57 0 0 0-36.04-10.652 328.72 328.72 0 0 0-18.421-3.758 326.657 326.657 0 0 0-56.125-4.836Zm0 622.55a298.302 298.302 0 0 1-20.809-.75 295.665 295.665 0 0 1-41.191-5.89 294.678 294.678 0 0 1-77.871-28.785 295.915 295.915 0 0 1-17.957-10.536c-2.543-1.613-5.32-2.418-8.328-2.418a15.208 15.208 0 0 0-4.926.805l-115.602 38.53 38.543-115.589c.364-1.094.602-2.219.715-3.367a15.56 15.56 0 0 0-.039-3.438 15.606 15.606 0 0 0-2.285-6.449 293.47 293.47 0 0 1-8.281-13.965 296.053 296.053 0 0 1-14.2-29.195 294.826 294.826 0 0 1-10.91-30.574 294.452 294.452 0 0 1-4.18-15.688 294.307 294.307 0 0 1-3.312-15.898 294.718 294.718 0 0 1-3.98-32.215 295.951 295.951 0 0 1-.66-16.227 296.013 296.013 0 0 1 1.359-32.433 298.445 298.445 0 0 1 2.016-16.113 299.479 299.479 0 0 1 2.894-15.977 295.147 295.147 0 0 1 8.402-31.355 295.45 295.45 0 0 1 11.785-30.246 297.817 297.817 0 0 1 7.126-14.594 297.257 297.257 0 0 1 7.91-14.176c2.77-4.656 5.66-9.23 8.68-13.723 3.019-4.496 6.16-8.906 9.421-13.226a292.855 292.855 0 0 1 10.133-12.688 294.197 294.197 0 0 1 22.277-23.613 297.08 297.08 0 0 1 24.735-21.027 294.868 294.868 0 0 1 26.887-18.184 292.283 292.283 0 0 1 14.156-7.961 299.42 299.42 0 0 1 14.566-7.168 295.458 295.458 0 0 1 30.211-11.883 295.131 295.131 0 0 1 15.547-4.683 300.185 300.185 0 0 1 15.781-3.817 293.544 293.544 0 0 1 32.074-5.012 295.204 295.204 0 0 1 32.43-1.464 295.874 295.874 0 0 1 32.395 2.101c5.375.649 10.73 1.442 16.062 2.383a295.506 295.506 0 0 1 77.031 24.855 296.917 296.917 0 0 1 28.418 15.688 297.177 297.177 0 0 1 13.52 8.992 294.628 294.628 0 0 1 13.008 9.723 298.854 298.854 0 0 1 12.453 10.418 297.276 297.276 0 0 1 11.86 11.09 294.59 294.59 0 0 1 21.808 24.047A295.115 295.115 0 0 1 978.5 261.41a292.383 292.383 0 0 1 6.832 14.73 294.844 294.844 0 0 1 15.516 46.125 296.323 296.323 0 0 1 3.457 15.863 296.26 296.26 0 0 1 5.082 48.398 295.99 295.99 0 0 1-1.063 32.446 295.525 295.525 0 0 1-12.73 63.563 295.257 295.257 0 0 1-5.336 15.335 295.86 295.86 0 0 1-20.945 43.926 291.585 291.585 0 0 1-8.555 13.8 295.994 295.994 0 0 1-9.297 13.313 298.234 298.234 0 0 1-10.016 12.778 294.699 294.699 0 0 1-34.04 34.777 292.912 292.912 0 0 1-12.561 10.289 291.593 291.593 0 0 1-13.11 9.586 295.389 295.389 0 0 1-57.078 30.73 295.103 295.103 0 0 1-30.719 10.488 296.442 296.442 0 0 1-15.746 3.965 298.845 298.845 0 0 1-15.941 3.094 295.18 295.18 0 0 1-32.27 3.535c-5.406.297-10.816.442-16.23.438ZM589.238 392.879c0 1.02-.05 2.035-.148 3.05a31.431 31.431 0 0 1-1.192 5.985c-.296.977-.64 1.934-1.027 2.875a31.278 31.278 0 0 1-4.7 7.836 29.58 29.58 0 0 1-2.05 2.262 30.469 30.469 0 0 1-4.715 3.87 31.195 31.195 0 0 1-14.242 5.098 30.617 30.617 0 0 1-3.05.149c-1.02 0-2.04-.047-3.052-.149a31.51 31.51 0 0 1-5.988-1.19 30.338 30.338 0 0 1-2.875-1.028 31.279 31.279 0 0 1-5.383-2.88 31.821 31.821 0 0 1-2.453-1.816 31.271 31.271 0 0 1-2.261-2.054 29.58 29.58 0 0 1-2.051-2.262 30.879 30.879 0 0 1-3.39-5.074c-.481-.899-.919-1.82-1.306-2.762a31.08 31.08 0 0 1-1.773-5.84c-.2-1-.348-2.004-.45-3.02a31.838 31.838 0 0 1-.148-3.05c0-1.02.051-2.04.149-3.05a31.51 31.51 0 0 1 .449-3.024 31.155 31.155 0 0 1 6.469-13.672 30.394 30.394 0 0 1 2.05-2.266 30.88 30.88 0 0 1 7.336-5.441 31.494 31.494 0 0 1 5.637-2.336 32.24 32.24 0 0 1 2.965-.742c1-.2 2.008-.348 3.024-.446a30.563 30.563 0 0 1 6.101 0c1.012.098 2.02.246 3.02.446 1 .199 1.988.449 2.964.742a31.495 31.495 0 0 1 5.637 2.336 31.196 31.196 0 0 1 5.074 3.39c.79.649 1.543 1.332 2.262 2.051a30.394 30.394 0 0 1 2.05 2.266 31.127 31.127 0 0 1 4.7 7.832c.387.941.73 1.902 1.027 2.879.297.972.543 1.96.743 2.96.199 1 .347 2.009.449 3.024.097 1.012.148 2.031.148 3.05Zm155.637 0a30.617 30.617 0 0 1-.598 6.07 31.024 31.024 0 0 1-3.078 8.602 31.196 31.196 0 0 1-3.386 5.074 30.469 30.469 0 0 1-2.055 2.262 30.469 30.469 0 0 1-4.715 3.87 31.196 31.196 0 0 1-5.383 2.88 31.024 31.024 0 0 1-5.84 1.77c-1 .198-2.004.347-3.02.448a30.617 30.617 0 0 1-3.05.149c-1.02 0-2.04-.047-3.05-.149a31.51 31.51 0 0 1-3.024-.449c-1-.199-1.989-.445-2.961-.742a30.027 30.027 0 0 1-2.88-1.027 31.278 31.278 0 0 1-5.378-2.88 31.887 31.887 0 0 1-2.457-1.816 32.118 32.118 0 0 1-2.262-2.054 30.879 30.879 0 0 1-5.441-7.336c-.48-.899-.914-1.82-1.305-2.762a31.08 31.08 0 0 1-1.773-5.84c-.2-1-.348-2.004-.45-3.02a31.838 31.838 0 0 1-.148-3.05c0-1.02.05-2.04.149-3.05a31.51 31.51 0 0 1 .449-3.024 31.155 31.155 0 0 1 6.469-13.672 31.276 31.276 0 0 1 2.05-2.266 33.047 33.047 0 0 1 2.262-2.05c.79-.649 1.61-1.255 2.457-1.82a31.128 31.128 0 0 1 2.617-1.571 31.244 31.244 0 0 1 8.602-3.078c1-.2 2.008-.348 3.023-.446a30.563 30.563 0 0 1 6.102 0 30.24 30.24 0 0 1 3.02.446 31.08 31.08 0 0 1 5.84 1.773 31.245 31.245 0 0 1 5.382 2.875 30.88 30.88 0 0 1 4.715 3.871 31.33 31.33 0 0 1 2.054 2.266c.645.785 1.25 1.605 1.817 2.453a31.127 31.127 0 0 1 2.879 5.379c.39.941.73 1.902 1.027 2.879.297.972.543 1.96.742 2.96.2 1 .348 2.009.45 3.024a30.56 30.56 0 0 1 .148 3.05Zm155.64 0c0 1.02-.05 2.035-.152 3.05a30.25 30.25 0 0 1-.449 3.02 31.024 31.024 0 0 1-1.77 5.84 31.245 31.245 0 0 1-2.874 5.383 31.302 31.302 0 0 1-6.137 6.77 31.196 31.196 0 0 1-7.836 4.695 31.024 31.024 0 0 1-5.84 1.77c-.996.198-2.004.347-3.02.448a30.617 30.617 0 0 1-3.05.149c-1.02 0-2.035-.047-3.051-.149a31.51 31.51 0 0 1-3.024-.449c-1-.199-1.988-.445-2.96-.742a30.411 30.411 0 0 1-5.641-2.336 31.127 31.127 0 0 1-2.617-1.57 31.082 31.082 0 0 1-2.453-1.817 31.33 31.33 0 0 1-6.137-6.77 31.195 31.195 0 0 1-4.649-11.222c-.199-1-.347-2.004-.445-3.02a30.622 30.622 0 0 1 0-6.1c.098-1.017.246-2.024.445-3.024a31.155 31.155 0 0 1 6.469-13.672 32.212 32.212 0 0 1 2.051-2.266 32.212 32.212 0 0 1 2.266-2.05 31.127 31.127 0 0 1 5.07-3.39c.902-.482 1.82-.915 2.762-1.306a31.57 31.57 0 0 1 2.879-1.031c.972-.293 1.96-.543 2.96-.742 1-.2 2.008-.348 3.024-.446a30.621 30.621 0 0 1 6.101 0c1.016.098 2.024.246 3.02.446 1 .199 1.988.449 2.965.742a31.245 31.245 0 0 1 8.258 3.906 30.879 30.879 0 0 1 2.453 1.82c.789.649 1.543 1.332 2.265 2.051a32.212 32.212 0 0 1 2.051 2.266 31.129 31.129 0 0 1 4.696 7.832c.39.941.734 1.902 1.027 2.879.297.972.543 1.96.742 2.96.2 1 .352 2.009.45 3.024.1 1.012.152 2.031.152 3.05Zm0 0"/></svg>