<svg width="24" height="24" viewBox="0 0 24 24" fill="none" xmlns="http://www.w3.org/2000/svg">
	<mask id="mask0_2_7220" style="mask-type:alpha" maskUnits="userSpaceOnUse" x="0" y="0" width="24" height="24">
		<path d="M0.109375 0.40625H23.1094V23.4063H0.109375V0.40625Z" fill="white"/>
	</mask>
	<g mask="url(#mask0_2_7220)">
		<path d="M22.5886 0.927102C22.3958 0.734394 22.1667 0.609394 21.9011 0.552102C21.6354 0.50002 21.375 0.520852 21.1198 0.625019L0.963558 8.68752C0.697934 8.79689 0.4896 8.96877 0.333349 9.20835C0.177099 9.44273 0.104183 9.70835 0.109391 9.9896C0.119808 10.2761 0.20835 10.5313 0.380224 10.7604C0.546891 10.9896 0.770849 11.1511 1.03647 11.2396L9.46877 14.0521L12.2761 22.4792C12.3646 22.75 12.5261 22.974 12.7552 23.1459C12.9844 23.3125 13.2448 23.4011 13.5261 23.4115H13.5677C13.849 23.4115 14.1042 23.3334 14.3334 23.1771C14.5625 23.0209 14.7292 22.8125 14.8281 22.5573L22.8958 2.39585C23 2.14585 23.0261 1.88543 22.9688 1.6146C22.9115 1.34898 22.7865 1.11981 22.5886 0.927102ZM1.31252 9.95835C1.30731 9.88023 1.33856 9.83335 1.41147 9.80731L20.4844 2.1771L9.77606 12.8854L1.42189 10.099C1.34898 10.0781 1.31252 10.0313 1.31252 9.95835ZM13.7084 22.1042C13.6875 22.1719 13.6406 22.2084 13.5677 22.2031H13.5573C13.4844 22.2031 13.4375 22.1667 13.4167 22.0938L10.6302 13.7344L21.3438 3.02606L13.7084 22.1042Z" fill="#545454"/>
	</g>
</svg>


