<svg width="419" height="519" fill="none" xmlns="http://www.w3.org/2000/svg"><path d="m284.432 247.568-.428-25.687c32.355-.546 56.352-10.146 71.304-28.545 27.1-33.34 17.585-85.153 17.478-85.677l25.227-4.828c.492 2.601 11.784 64.186-22.776 106.699-19.961 24.563-50.518 37.364-90.805 38.038Z" fill="#8A6FE8"/><path d="m331.954 109.36 29.872 24.885c5.319 4.431 13.229 3.714 17.671-1.606 4.431-5.319 3.714-13.229-1.606-17.67l-29.872-24.885c-5.319-4.43-13.229-3.714-17.671 1.606-4.431 5.33-3.714 13.239 1.606 17.67ZM407.175 118.062l10.745-23.836c2.815-6.368-.064-13.817-6.432-16.643-6.368-2.815-13.818.064-16.643 6.433l-11.014 24.445 23.344 9.601Z" fill="#8A6FE8"/><path d="m401.363 105.175-.129-36.058c-.053-6.968-5.736-12.576-12.704-12.523-6.968.054-12.576 5.737-12.523 12.705l.011 26.811 25.345 9.065Z" fill="#8A6FE8"/><path d="m386.453 109.071-8.316-35.116c-1.594-6.786-8.38-10.992-15.166-9.397-6.786 1.594-10.992 8.38-9.397 15.166l8.466 35.758 24.413-6.411Z" fill="#8A6FE8"/><path d="M381.776 142.261c14.583 0 26.405-11.821 26.405-26.404s-11.822-26.404-26.405-26.404c-14.582 0-26.404 11.821-26.404 26.404s11.822 26.404 26.404 26.404Z" fill="url(#a)"/><path d="M248.267 406.979c.246-22.252-2.922-67.418-25.891-105.243l-22.454 13.636c20.838 34.303 22.401 74.343 21.919 91.81-.043 1.445 13.422 2.751 26.426-.203Z" fill="url(#b)"/><path d="m221.841 406.936 20.796-.096 19.415 111.225-41.741.193c-3.179.011-5.587-2.547-5.373-5.726l6.903-105.596Z" fill="#522CD5"/><path d="M306.566 488.814c3.607 2.847 3.543 6.968 3.265 11.313l-.867 13.325c-.161 2.387-2.237 4.346-4.624 4.357l-43.508.203c-2.707.011-4.752-2.173-4.57-4.87l.289-13.807c.332-5.02-1.359-6.861-5.244-11.591-6.658-8.081-26.34-52.124-24.467-80.819l21.416-.096c1.435 17.029 23.911 54.853 58.31 81.985Z" fill="url(#c)"/><path d="M309.82 500.127c.203-3.039.257-5.951-.931-8.412l-54.254.246c1.499 2.205 2.13 4.131 1.927 7.353l-.289 13.807c-.182 2.707 1.873 4.891 4.57 4.869l43.497-.192c2.387-.011 4.463-1.97 4.624-4.356l.856-13.315Z" fill="url(#d)"/><path d="M133.552 407.471c-.449-22.251 2.312-67.45 24.938-105.478l22.583 13.432c-20.528 34.496-21.727 74.547-21.084 92.003.053 1.456-13.411 2.89-26.437.043Z" fill="url(#e)"/><path d="M110.798 497.152c-.033-2.965.406-5.577 1.659-9.922 19.425-53.098 21.063-79.866 21.063-79.866l26.479-.118s1.82 26.266 21.717 79.181c1.573 3.768 1.755 7.214 1.958 10.404l.118 16.985c.011 2.558-2.076 4.667-4.634 4.678l-1.285.01-61.092.278-1.285.011a4.658 4.658 0 0 1-4.677-4.634l-.021-17.007Z" fill="url(#f)"/><path d="M110.798 497.152c0-.482.01-.953.032-1.413.139-1.477.813-3.136 4.045-3.157l65.332-.3c2.354.085 3.136 1.894 3.382 3.029.032.503.075 1.017.107 1.509l.117 16.986a4.626 4.626 0 0 1-2.044 3.863 4.701 4.701 0 0 1-2.59.814l-1.284.011-61.093.278-1.274.01a4.663 4.663 0 0 1-4.677-4.634l-.053-16.996Z" fill="url(#g)"/><path d="M314.979 246.348c9.183-35.941 3.029-64.571 3.029-64.571l8.444-.043.204-.16C314.262 115.75 256.326 66.099 186.949 66.42c-78.153.353-141.226 64.004-140.873 142.157.354 78.154 64.004 141.226 142.158 140.873 61.671-.278 113.944-39.976 133.07-95.107.568-2.344.493-6.539-6.325-7.995Z" fill="url(#h)"/><path d="m310.237 279.035-244.36 1.113a142.281 142.281 0 0 0 19.49 25.613l205.605-.932a141.654 141.654 0 0 0 19.265-25.794Z" fill="#D8CFF7"/><path d="m235.062 312.794 45.862-.209-.184-40.564-45.863.209.185 40.564Z" fill="#512BD4"/><path d="M243.001 297.626c-.31 0-.567-.096-.781-.299a1 1 0 0 1-.321-.739c0-.289.107-.546.321-.749a1.05 1.05 0 0 1 .781-.311c.311 0 .567.107.781.311a1.014 1.014 0 0 1 .011 1.488 1.177 1.177 0 0 1-.792.299ZM255.192 297.434h-1.98l-5.245-8.231a3.708 3.708 0 0 1-.331-.653h-.043c.043.236.064.749.064 1.541l.011 7.353h-1.756l-.021-11.216h2.108l5.063 8.037c.214.332.353.568.417.685h.032c-.053-.299-.074-.802-.074-1.509l-.011-7.224h1.744l.022 11.217ZM263.733 297.412l-6.144.011-.021-11.217 5.897-.011v1.584l-4.078.011.011 3.179 3.757-.011v1.574l-3.757.01.011 3.318 4.324-.01v1.562ZM272.445 287.758l-3.147.011.022 9.632h-1.82l-.021-9.632-3.136.01v-1.584l8.091-.021.011 1.584Z" fill="#fff"/><path d="M315.279 246.337c9.076-35.501 3.178-63.854 3.029-64.539l-146.824.664s-9.258-.899-9.216 7.556c.043 8.445.493 32.323.61 58.728.022 5.426 4.485 8.027 7.985 8.005.011 0 140.755-4.538 144.416-10.414Z" fill="url(#i)"/><path d="M227.685 246.798s22.498-17.971 26.886-21.299c4.388-3.329 8.241-3.522 12.298-.054 4.056 3.468 26.747 21.053 26.747 21.053l-65.931.3Z" fill="#A08BE8"/><path d="M320.748 256.141s4.195-7.727-5.469-9.793c.01-.043-144.352.546-144.352.546-3.361.011-7.695-1.969-8.081-5.223.011 2.333.032 4.698.043 7.085.021 4.924 3.693 7.514 6.989 7.942.332.032.664.075.996.075l9.868-.043 140.006-.589ZM206.4 233.214c6.111-.119 10.902-8.547 10.702-18.824-.201-10.278-5.317-18.512-11.428-18.393-6.111.119-10.902 8.547-10.701 18.824.2 10.278 5.316 18.512 11.427 18.393ZM306.249 214.267c.107-10.278-4.761-18.662-10.872-18.726-6.111-.063-11.152 8.217-11.259 18.496-.107 10.278 4.76 18.662 10.872 18.726 6.111.063 11.152-8.218 11.259-18.496Z" fill="#512BD4"/><path d="M205.905 205.291c2.247-2.269 5.287-3.275 8.252-3.029 1.755 3.233 2.857 7.471 2.954 12.127a29.76 29.76 0 0 1-.953 8.124 10.372 10.372 0 0 1-10.179-2.591c-4.067-4.013-4.099-10.574-.074-14.631ZM294.996 204.285a10.362 10.362 0 0 1 8.263-3.029c1.905 3.372 3.05 7.953 2.997 12.983-.032 2.569-.364 5.02-.953 7.246-3.51 1.038-7.46.193-10.242-2.569-4.057-4.024-4.089-10.574-.065-14.631Z" fill="#8065E0"/><path d="M11.634 357.017c-.717-2.301-17.36-56.876 9.686-98.114 15.627-23.825 41.988-37.868 78.346-41.753l2.783 26.126c-28.106 2.997-47.981 13.069-59.091 29.926-20.26 30.739-6.786 75.531-6.647 75.981l-25.077 7.834Z" fill="url(#j)"/><path d="M95.15 252.802c14.352 0 25.987-11.635 25.987-25.987 0-14.352-11.635-25.987-25.987-25.987-14.352 0-25.987 11.635-25.987 25.987 0 14.352 11.635 25.987 25.987 25.987Z" fill="url(#k)"/><path d="m72.01 334.434-38.542-5.127c-6.871-.91-13.175 3.907-14.096 10.778-.91 6.871 3.907 13.175 10.778 14.096l38.542 5.127c6.871.909 13.175-3.907 14.096-10.778.91-6.872-3.917-13.186-10.778-14.096ZM3.735 367.185l3.618 25.891c1.017 6.892 7.417 11.655 14.31 10.649 6.893-1.017 11.655-7.417 10.65-14.31l-3.715-26.554-24.863 4.324Z" fill="#8A6FE8"/><path d="m15.52 374.988 19.329 30.439c3.757 5.865 11.56 7.578 17.425 3.821s7.577-11.559 3.82-17.425l-14.299-22.679-26.276 5.844Z" fill="#8A6FE8"/><path d="m26.051 363.739 25.752 25.28c4.966 4.892 12.95 4.827 17.841-.139 4.892-4.966 4.828-12.951-.128-17.842l-26.222-25.741-17.243 18.442Z" fill="#8A6FE8"/><path d="M26.404 381.912c14.583 0 26.405-11.821 26.405-26.404s-11.822-26.404-26.405-26.404C11.822 329.104 0 340.925 0 355.508s11.822 26.404 26.404 26.404Z" fill="url(#l)"/><path d="m184.73 63.63-26.911 2.96.742-28.049 19.327-2.123 6.842 27.213Z" fill="#8A6FE8"/><path d="M170.018 41.647c10.437-2.126 17.175-12.31 15.049-22.748-2.126-10.438-12.31-17.176-22.748-15.05-10.437 2.126-17.175 12.311-15.049 22.749 2.126 10.437 12.31 17.175 22.748 15.049Z" fill="#D8CFF7"/><path d="M196.885 79.385c1.217-.139 2.063-1.294 1.799-2.485-2.833-12.618-14.761-21.363-27.911-19.907-13.151 1.444-22.887 12.58-22.908 25.506-.002 1.224 1.084 2.16 2.303 2.033l46.717-5.147Z" fill="url(#m)"/><defs><radialGradient id="g" cx="0" cy="0" r="1" gradientUnits="userSpaceOnUse" gradientTransform="rotate(179.739 73.78 235.18) scale(50.2476)"><stop offset=".034" stop-color="#522CD5"/><stop offset=".996" stop-color="#8A6FE8"/></radialGradient><radialGradient id="a" cx="0" cy="0" r="1" gradientUnits="userSpaceOnUse" gradientTransform="translate(382.004 103.457) scale(26.4058)"><stop stop-color="#8065E0"/><stop offset="1" stop-color="#512BD4"/></radialGradient><radialGradient id="l" cx="0" cy="0" r="1" gradientUnits="userSpaceOnUse" gradientTransform="translate(25.805 345.043) scale(26.4106)"><stop stop-color="#8065E0"/><stop offset="1" stop-color="#512BD4"/></radialGradient><radialGradient id="d" cx="0" cy="0" r="1" gradientUnits="userSpaceOnUse" gradientTransform="rotate(-.261 103320.915 -61502.965) scale(45.8326)"><stop offset=".034" stop-color="#522CD5"/><stop offset=".996" stop-color="#8A6FE8"/></radialGradient><radialGradient id="k" cx="0" cy="0" r="1" gradientUnits="userSpaceOnUse" gradientTransform="rotate(-.261 47964.292 -19744.423) scale(25.9924)"><stop stop-color="#8065E0"/><stop offset="1" stop-color="#512BD4"/></radialGradient><radialGradient id="i" cx="0" cy="0" r="1" gradientUnits="userSpaceOnUse" gradientTransform="rotate(179.739 157.25 79.728) scale(146.053)"><stop offset=".093" stop-color="#E1DFDD"/><stop offset=".657" stop-color="#fff"/></radialGradient><radialGradient id="h" cx="0" cy="0" r="1" gradientUnits="userSpaceOnUse" gradientTransform="rotate(179.739 109.434 77.214) scale(140.935)"><stop offset=".474" stop-color="#A08BE8"/><stop offset=".862" stop-color="#8065E0"/></radialGradient><radialGradient id="m" cx="0" cy="0" r="1" gradientUnits="userSpaceOnUse" gradientTransform="rotate(-32.203 201.245 -259.246) scale(21.0773)"><stop stop-color="#8065E0"/><stop offset="1" stop-color="#512BD4"/></radialGradient><linearGradient id="b" x1="214.439" y1="303.482" x2="236.702" y2="409.505" gradientUnits="userSpaceOnUse"><stop stop-color="#522CD5"/><stop offset=".44" stop-color="#8A6FE8"/></linearGradient><linearGradient id="f" x1="146.739" y1="407.302" x2="147.246" y2="518.627" gradientUnits="userSpaceOnUse"><stop stop-color="#522CD5"/><stop offset=".44" stop-color="#8A6FE8"/></linearGradient><linearGradient id="j" x1="54.185" y1="217.159" x2="54.185" y2="357.022" gradientUnits="userSpaceOnUse"><stop offset=".334" stop-color="#9780E6"/><stop offset=".849" stop-color="#8A6FE8"/></linearGradient><linearGradient id="e" x1="166.061" y1="303.491" x2="144.763" y2="409.709" gradientUnits="userSpaceOnUse"><stop stop-color="#522CD5"/><stop offset=".44" stop-color="#8A6FE8"/></linearGradient><linearGradient id="c" x1="231.673" y1="404.144" x2="297.805" y2="522.048" gradientUnits="userSpaceOnUse"><stop stop-color="#522CD5"/><stop offset=".44" stop-color="#8A6FE8"/></linearGradient></defs></svg>