<svg width="24" height="24" fill="none" xmlns="http://www.w3.org/2000/svg"><mask id="a" style="mask-type:alpha" maskUnits="userSpaceOnUse" x="0" y="0" width="24" height="24"><path d="M.667.208h22.666V24H.667V.208Z" fill="#fff"/></mask><g mask="url(#a)"><mask id="b" style="mask-type:alpha" maskUnits="userSpaceOnUse" x="0" y="1" width="23" height="23"><path fill-rule="evenodd" clip-rule="evenodd" d="M20.51 1.5a.997.997 0 0 0-1.41 0l-8 8c-.11.11-.194.245-.246.39l-1 3a1.001 1.001 0 0 0 1.266 1.266l3-1a.981.981 0 0 0 .39-.24l8-8c.391-.39.391-1.025 0-1.416l-2-2Zm-8.124 10.125.291-.875 7.125-7.13.589.588-7.125 7.125-.88.292ZM2.802 6.208a1 1 0 0 1 1-1h10.5c.558 0 1-.448 1-1s-.442-1-1-1h-10.5a3 3 0 0 0-3 3v14a3 3 0 0 0 3 3h14c1.662 0 3-1.343 3-3v-10.5a1 1 0 0 0-2 0v10.5c0 .552-.442 1-1 1h-14a1 1 0 0 1-1-1v-14Z" fill="#fff"/></mask><g mask="url(#b)"><path d="M.802 1.11v22.098h22.1V1.11H.801Z" fill="#B98CE8"/></g></g></svg>