<svg xmlns="http://www.w3.org/2000/svg" width="1920" viewBox="0 0 1440 810" height="1080" version="1.0"><path fill="#fff" d="M741.816 70.879c-201.949-12.91-369.136 154.27-356.222 356.226 10.668 166.926 145.504 301.758 312.433 312.434 201.95 12.91 369.137-154.27 356.223-356.226-10.676-166.93-145.512-301.766-312.434-312.434Zm129.801 500.566c13.172-45.27 21.04-97.34 22.098-153.355h135.137c-2.961 71.82-30.532 137.355-74.485 188.46-20.164-14.128-48.351-26.073-82.75-35.105Zm-386.14 35.106c-43.954-51.106-71.532-116.64-74.489-188.461h135.14c1.052 56.015 8.919 108.086 22.099 153.355-34.41 9.04-62.598 20.977-82.75 35.106Zm82.68-367.36c-13.145 45.223-20.985 97.211-22.036 153.13H410.988c2.946-71.477 30.27-136.731 73.856-187.735 20.508 13.898 48.894 25.676 83.312 34.605Zm138.874 153.13H571.895c1.105-53.329 9.039-103.669 21.996-147.208 34.828 7.024 73.453 11.024 113.14 11.746Zm0 25.769v135.469c-39.77.722-78.39 4.78-113.09 11.894-12.988-43.582-20.933-93.969-22.046-147.363Zm25.774 0H867.94c-1.105 53.394-9.058 103.781-22.039 147.363-34.722-7.113-73.332-11.172-113.097-11.894Zm0-25.77V256.852c39.687-.715 78.312-4.723 113.14-11.747 12.957 43.547 20.89 93.887 21.996 147.215Zm0-161.234V97.25c42.324 8.035 80.187 55.035 105.02 123.238-32.384 6.313-68.2 9.91-105.02 10.598ZM707.03 97.25v133.836c-36.82-.688-72.636-4.285-105.015-10.598 24.828-68.203 62.695-115.21 105.015-123.238Zm0 482.078v133.84c-42.297-8.027-80.136-54.973-104.965-123.098 32.27-6.406 68.075-10.043 104.965-10.742Zm25.774 133.832V579.328c36.883.7 72.68 4.336 104.965 10.742-24.829 68.121-62.668 115.07-104.965 123.09Zm160.91-320.84c-1.05-55.918-8.89-107.906-22.028-153.129 34.418-8.937 62.805-20.707 83.305-34.605 43.586 50.996 70.91 116.258 73.856 187.734Zm43.465-206.953c-18.043 11.43-43.285 21.516-73.367 29.23-16.172-45.714-38.122-82.917-63.985-108.128 52.594 14.086 99.703 41.699 137.352 78.898ZM576.03 214.605c-30.082-7.718-55.324-17.8-73.367-29.23 37.64-37.207 84.758-64.816 137.356-78.898-25.868 25.203-47.825 62.41-63.989 108.128Zm-72.715 411.063c17.653-11.598 42.704-21.824 72.79-29.637 16.16 45.614 38.085 82.739 63.91 107.91-52.297-14.007-99.164-41.394-136.7-78.273Zm360.414-29.637c30.082 7.813 55.137 18.04 72.79 29.637-37.536 36.883-84.395 64.273-136.696 78.273 25.82-25.171 47.739-62.296 63.906-107.91Zm0 0"/></svg>