<svg xmlns="http://www.w3.org/2000/svg" width="1920" viewBox="0 0 1440 810" height="1080" version="1.0"><defs><clipPath id="a"><path d="M359 44h724.629v724.23H359Zm0 0"/></clipPath></defs><g clip-path="url(#a)"><path fill="#fff" d="m1077.277 479.434-329.66-271.555a795.69 795.69 0 0 0 63.438-62.516 59.683 59.683 0 0 0 6.894-11.547 60.322 60.322 0 0 0 2.426-6.285 59.377 59.377 0 0 0 1.707-6.515 59.612 59.612 0 0 0 1.164-13.398 59.402 59.402 0 0 0-.555-6.712 59.353 59.353 0 0 0-1.304-6.61 67.98 67.98 0 0 0-2.278-7.226 67.076 67.076 0 0 0-3.07-6.922 67.061 67.061 0 0 0-3.836-6.53 66.54 66.54 0 0 0-4.543-6.06 66.99 66.99 0 0 0-10.984-10.398 67.26 67.26 0 0 0-13.031-7.68 59.51 59.51 0 0 0-15.918-4.246 59.415 59.415 0 0 0-16.477.305 59.142 59.142 0 0 0-8.043 1.867 59.187 59.187 0 0 0-14.926 6.973 59.218 59.218 0 0 0-6.593 4.973 59.893 59.893 0 0 0-6.598-4.961 59.96 59.96 0 0 0-7.223-4 59.731 59.731 0 0 0-7.707-2.961 59.568 59.568 0 0 0-16.265-2.59 59.356 59.356 0 0 0-24.165 4.64 67.26 67.26 0 0 0-18.816 12.567 66.012 66.012 0 0 0-5.2 5.512 66.54 66.54 0 0 0-4.542 6.058 67.061 67.061 0 0 0-6.91 13.453 67.958 67.958 0 0 0-2.274 7.227 59.353 59.353 0 0 0-1.304 6.61 59.408 59.408 0 0 0 .609 20.109A59.377 59.377 0 0 0 623 127.53c.691 2.14 1.5 4.235 2.426 6.285a59.683 59.683 0 0 0 6.895 11.547 795.69 795.69 0 0 0 63.437 62.516l-329.66 271.555c-.43.355-.844.726-1.239 1.12-.394.395-.765.81-1.12 1.239-.352.43-.684.879-.997 1.34a17.13 17.13 0 0 0-.855 1.433c-.266.493-.504.997-.715 1.508-.215.516-.402 1.04-.563 1.574-.164.532-.3 1.075-.406 1.622a16.773 16.773 0 0 0-.328 3.316c0 .559.027 1.113.082 1.668a16.839 16.839 0 0 0 1.211 4.848c.21.511.45 1.015.71 1.507.267.493.552.97.86 1.434.309.465.64.91.996 1.34.352.433.727.844 1.121 1.238.391.395.805.77 1.235 1.125.433.352.879.684 1.344.992.46.313.937.598 1.43.86a17.162 17.162 0 0 0 3.082 1.281c.53.16 1.074.297 1.62.406a16.6 16.6 0 0 0 3.317.328c.558 0 1.113-.027 1.668-.082a18.104 18.104 0 0 0 1.652-.242c.547-.11 1.09-.246 1.621-.406.535-.16 1.059-.348 1.574-.563a16.573 16.573 0 0 0 2.942-1.57c.465-.309.91-.64 1.344-.992l62.68-51.66V751.12a17.092 17.092 0 0 0 .699 4.957 17.16 17.16 0 0 0 1.261 3.098c.262.492.547.972.856 1.441.308.465.636.914.992 1.348a16.844 16.844 0 0 0 5.129 4.242c.492.262.996.504 1.512.719.515.215 1.042.402 1.578.566.535.164 1.074.297 1.62.406.551.114 1.102.196 1.657.25.559.055 1.117.082 1.676.082h164.812c.555 0 1.11-.03 1.66-.085a16.695 16.695 0 0 0 3.254-.653c.532-.16 1.055-.347 1.567-.562a16.993 16.993 0 0 0 6.61-4.902 17.335 17.335 0 0 0 2.558-4.262 17.378 17.378 0 0 0 .965-3.176c.109-.547.19-1.094.246-1.645.058-.554.086-1.105.086-1.66V607.496c0-1.187.03-2.375.086-3.562a72.14 72.14 0 0 1 .265-3.555 72.127 72.127 0 0 1 1.043-7.043c.23-1.168.492-2.324.781-3.477a72.882 72.882 0 0 1 2.066-6.816 71.22 71.22 0 0 1 1.286-3.324 71.116 71.116 0 0 1 3.043-6.442 73.343 73.343 0 0 1 5.715-9.02 69.374 69.374 0 0 1 2.191-2.808 72.952 72.952 0 0 1 4.785-5.281 72.726 72.726 0 0 1 23.547-15.734 72.882 72.882 0 0 1 13.617-4.129 71.723 71.723 0 0 1 10.598-1.309 72.274 72.274 0 0 1 3.563-.086 72.274 72.274 0 0 1 10.648.785c1.176.176 2.348.38 3.512.61 1.164.23 2.324.492 3.476.78a72.882 72.882 0 0 1 10.14 3.348 73.296 73.296 0 0 1 9.54 4.805c1.02.61 2.023 1.246 3.008 1.907a72.219 72.219 0 0 1 8.422 6.57 72.726 72.726 0 0 1 5.035 5.035 72.969 72.969 0 0 1 6.57 8.418c.66.988 1.297 1.992 1.906 3.012.61 1.02 1.196 2.05 1.758 3.097a71.116 71.116 0 0 1 3.043 6.441 71.22 71.22 0 0 1 2.402 6.708c.344 1.136.66 2.281.95 3.433.289 1.153.547 2.309.78 3.477.231 1.164.434 2.332.61 3.508.172 1.176.32 2.355.434 3.535.117 1.183.207 2.367.262 3.555a72.28 72.28 0 0 1 .09 3.562v143.625c0 .555.027 1.106.081 1.66a17.878 17.878 0 0 0 .653 3.254c.164.531.351 1.05.562 1.563.215.515.45 1.015.715 1.504.262.488.547.964.852 1.425.308.461.64.907.992 1.332a16.673 16.673 0 0 0 2.348 2.348c.43.356.875.684 1.336.992.46.309.933.594 1.425.856.489.261.989.5 1.5.71.512.215 1.035.403 1.567.563a16.695 16.695 0 0 0 3.254.652c.55.055 1.105.082 1.66.086H976.03a16.95 16.95 0 0 0 4.926-.73c.531-.16 1.05-.348 1.566-.559.512-.215 1.012-.449 1.504-.71.489-.262.965-.547 1.426-.856.465-.309.91-.637 1.34-.992.43-.352.84-.723 1.234-1.114.391-.394.766-.804 1.118-1.234.351-.43.683-.871.992-1.336a16.426 16.426 0 0 0 1.57-2.93 17.36 17.36 0 0 0 .566-1.562c.16-.531.297-1.07.407-1.617.11-.543.191-1.09.246-1.645.054-.55.082-1.105.086-1.66V453.97l62.68 51.656a17.606 17.606 0 0 0 2.777 1.852 17.11 17.11 0 0 0 3.082 1.27c.531.163 1.07.296 1.617.405.547.106 1.098.188 1.652.243.555.054 1.11.082 1.668.082a18.272 18.272 0 0 0 1.668-.086 16.85 16.85 0 0 0 3.27-.653 17.06 17.06 0 0 0 3.078-1.277 18.3 18.3 0 0 0 1.434-.86c.46-.308.91-.64 1.34-.996a16.784 16.784 0 0 0 2.355-2.36 16.525 16.525 0 0 0 1.851-2.772 16.607 16.607 0 0 0 1.278-3.082c.16-.532.297-1.07.406-1.618.105-.546.187-1.097.242-1.652a16.97 16.97 0 0 0 0-3.336 18.221 18.221 0 0 0-.242-1.648 17.877 17.877 0 0 0-.406-1.621 17.484 17.484 0 0 0-.563-1.57 17.062 17.062 0 0 0-2.566-4.285c-.352-.43-.727-.84-1.121-1.235-.39-.395-.805-.77-1.235-1.121ZM659.172 124.633a25.864 25.864 0 0 1-5.148-16.457c.07-1.961.359-3.89.87-5.785a33.075 33.075 0 0 1 2.72-7 33.233 33.233 0 0 1 4.218-6.215 33.145 33.145 0 0 1 5.504-5.114 33.279 33.279 0 0 1 6.508-3.75c17.21-7.894 31.426 11.583 34.715 13.16.398.481.82.934 1.27 1.364a17.162 17.162 0 0 0 2.941 2.27 16.948 16.948 0 0 0 3.367 1.574c.586.199 1.183.367 1.789.504.61.132 1.219.234 1.836.304.62.067 1.238.102 1.86.102.62 0 1.241-.035 1.858-.102.618-.07 1.227-.172 1.836-.304a17.606 17.606 0 0 0 1.79-.504 16.948 16.948 0 0 0 3.367-1.575 16.679 16.679 0 0 0 2.941-2.27c.45-.429.871-.882 1.27-1.362.199-.196 17.867-20.891 34.78-13.16a33.279 33.279 0 0 1 6.509 3.75 33.145 33.145 0 0 1 5.504 5.113 33.233 33.233 0 0 1 4.218 6.215 33.075 33.075 0 0 1 2.72 7c.507 1.894.796 3.82.87 5.78a26.047 26.047 0 0 1-5.113 16.462 857.35 857.35 0 0 1-62.485 61.004 849.115 849.115 0 0 1-62.515-61.004ZM959.055 734.14h-130.86V607.496a106.069 106.069 0 0 0-.515-10.437c-.172-1.735-.387-3.461-.645-5.188a105.031 105.031 0 0 0-2.043-10.246 102.168 102.168 0 0 0-1.394-5.035 109.981 109.981 0 0 0-1.641-4.961c-.59-1.64-1.215-3.266-1.883-4.875a104.393 104.393 0 0 0-2.12-4.777 102.22 102.22 0 0 0-2.352-4.668 103.804 103.804 0 0 0-5.375-8.961 104.98 104.98 0 0 0-3.008-4.274 108.923 108.923 0 0 0-6.633-8.074 102.946 102.946 0 0 0-3.606-3.785 102.998 102.998 0 0 0-3.785-3.602 102.829 102.829 0 0 0-3.957-3.414 108.95 108.95 0 0 0-4.12-3.215 106.149 106.149 0 0 0-8.688-5.8 108.651 108.651 0 0 0-4.547-2.579 108.686 108.686 0 0 0-9.45-4.464 103.667 103.667 0 0 0-4.874-1.88 106.78 106.78 0 0 0-4.961-1.64 111.76 111.76 0 0 0-5.04-1.394 105.003 105.003 0 0 0-10.246-2.035 105.607 105.607 0 0 0-10.402-1.024 105.792 105.792 0 0 0-10.45 0 105.84 105.84 0 0 0-10.398 1.023 105.003 105.003 0 0 0-10.246 2.036 105.266 105.266 0 0 0-10 3.035 106.407 106.407 0 0 0-14.324 6.344 108.651 108.651 0 0 0-8.96 5.37 105.908 105.908 0 0 0-12.352 9.637 106.349 106.349 0 0 0-3.79 3.602 106.234 106.234 0 0 0-3.6 3.785 102.83 102.83 0 0 0-3.415 3.957 105.056 105.056 0 0 0-6.23 8.39 107.757 107.757 0 0 0-5.375 8.962c-.82 1.535-1.606 3.09-2.348 4.668a104.393 104.393 0 0 0-2.121 4.777 105.266 105.266 0 0 0-3.523 9.836 106.717 106.717 0 0 0-1.4 5.035 109.032 109.032 0 0 0-2.042 10.246 110.576 110.576 0 0 0-.64 5.188 105.855 105.855 0 0 0-.516 10.437v126.645H484.29V426.03l237.397-195.578 237.399 195.578Zm0 0"/></g></svg>