<svg width="38" height="38" viewBox="0 0 38 38" fill="none" xmlns="http://www.w3.org/2000/svg">
	<mask id="mask0_7_2" style="mask-type:alpha" maskUnits="userSpaceOnUse" x="0" y="0" width="38" height="38">
		<path d="M0.927124 0.646362H37.5105V37.2297H0.927124V0.646362Z" fill="white"/>
	</mask>
	<g mask="url(#mask0_7_2)">
		<path d="M19.2188 0.646362C9.11983 0.646362 0.927124 8.83386 0.927124 18.938C0.927124 29.037 9.11983 37.2297 19.2188 37.2297C29.323 37.2297 37.5105 29.037 37.5105 18.938C37.5105 8.83386 29.323 0.646362 19.2188 0.646362Z" fill="#B98CE8"/>
	</g>
	<mask id="mask1_7_2" style="mask-type:alpha" maskUnits="userSpaceOnUse" x="7" y="5" width="25" height="27">
		<path d="M7.07812 5.96924H31.4688V31.2088H7.07812V5.96924Z" fill="white"/>
	</mask>
	<g mask="url(#mask1_7_2)">
		<path d="M7.65106 21.7609C8.99481 23.1151 9.51044 23.3078 10.6302 25.3495C12.4688 28.6932 12.1979 30.0786 12.7448 30.7141C13.2917 31.3495 15.7865 31.8651 17.4948 28.9588C19.1979 26.0474 21.8542 18.0161 25.2604 13.2036C28.6667 8.38593 30.2604 6.99009 31.2813 6.26093C32.3021 5.53697 29.0625 5.68801 22.6927 12.4432C18.2656 17.1411 15.1302 23.6255 15.1302 23.6255C15.1302 23.6255 14.2448 20.0786 12.2656 17.7141C10.2917 15.3547 5.41669 19.5109 7.65106 21.7609Z" fill="#545454"/>
	</g>
</svg>
