<svg width="19" height="19" viewBox="0 0 19 19" fill="none" xmlns="http://www.w3.org/2000/svg">
	<path d="M9.90625 18.1146C4.93229 18.1146 0.90625 14.0573 0.90625 9.11462C0.90625 4.16671 4.93229 0.114624 9.90625 0.114624C14.8802 0.114624 18.9062 4.14067 18.9062 9.11462C18.9062 14.0834 14.849 18.1146 9.90625 18.1146ZM9.90625 0.666707C5.23958 0.666707 1.46354 4.44796 1.46354 9.11462C1.46354 13.7813 5.23958 17.5573 9.90625 17.5573C14.5729 17.5573 18.349 13.7813 18.349 9.11462C18.349 4.44796 14.5469 0.666707 9.90625 0.666707Z" fill="#888888"/>
	<path d="M16.1198 13.5052C15.8855 13.0469 14.0938 11.0469 12.0365 8.92189C13.6511 7.12501 14.9948 5.5521 15.2657 5.17189C15.9844 4.16668 15.1459 2.63022 13.9063 3.53647C13 4.19793 11.5782 5.51043 10.099 6.96876C8.61983 5.51043 7.20317 4.19793 6.29171 3.53647C5.05733 2.63022 4.21879 4.16668 4.93233 5.17189C5.20837 5.5521 6.54691 7.12501 8.1615 8.92189C6.10421 11.0469 4.31775 13.0469 4.07817 13.5052C3.599 14.4323 4.1615 15.5938 5.35421 15.4375C5.91671 15.3646 7.98962 13.3073 10.099 11.0417C12.2084 13.3073 14.2813 15.3646 14.849 15.4375C16.0417 15.5938 16.599 14.4323 16.1198 13.5052Z" fill="#A6A6A6"/>
</svg>

