<svg width="36" height="35" viewBox="0 0 36 35" fill="none" xmlns="http://www.w3.org/2000/svg">
	<mask id="mask0_19_7" style="mask-type:alpha" maskUnits="userSpaceOnUse" x="0" y="0" width="36" height="35">
		<path d="M0.333374 0.130737H35.1771V34.9693H0.333374V0.130737Z" fill="white"/>
	</mask>
	<g mask="url(#mask0_19_7)">
		<path d="M17.7552 0.130737C8.13546 0.130737 0.333374 7.92761 0.333374 17.5526C0.333374 27.1724 8.13546 34.9693 17.7552 34.9693C27.375 34.9693 35.1771 27.1724 35.1771 17.5526C35.1771 7.92761 27.375 0.130737 17.7552 0.130737Z" fill="#B98CE8"/>
	</g>
	<mask id="mask1_19_7" style="mask-type:alpha" maskUnits="userSpaceOnUse" x="7" y="7" width="21" height="22">
		<path d="M7.19275 7.05786H28V28.3912H7.19275V7.05786Z" fill="white"/>
	</mask>
	<g mask="url(#mask1_19_7)">
		<path d="M27.3282 24.9069C26.948 24.1308 24.073 20.7871 20.7657 17.2298C23.3595 14.2194 25.5157 11.5892 25.9532 10.9486C27.1095 9.26105 25.7605 6.69335 23.7709 8.20897C22.3074 9.32356 20.0261 11.5163 17.6459 13.959C15.2709 11.5163 12.9845 9.32356 11.5261 8.20897C9.53654 6.69335 8.18758 9.26105 9.33862 10.9486C9.78133 11.5892 11.9324 14.2194 14.5313 17.2298C11.224 20.7871 8.34904 24.1361 7.96362 24.9069C7.19799 26.459 8.09383 28.4017 10.0157 28.1413C10.922 28.0215 14.2553 24.5683 17.6459 20.7819C21.0417 24.5683 24.3751 28.0215 25.2813 28.1413C27.2032 28.4017 28.099 26.459 27.3282 24.9069Z" fill="#545454"/>
	</g>
</svg>

