<svg width="172" height="27" fill="none" xmlns="http://www.w3.org/2000/svg"><mask id="a" style="mask-type:alpha" maskUnits="userSpaceOnUse" x="0" y="0" width="172" height="27"><path d="M0 0h172v27H0V0Z" fill="#fff"/></mask><g mask="url(#a)"><path d="M158.422 27H13.578C6.083 27 0 20.953 0 13.5S6.083 0 13.578 0h144.844C165.922 0 172 6.047 172 13.5S165.922 27 158.422 27Z" fill="#B98CE8"/></g><path d="M32.59 18.651c-1.099 0-2.083-.24-2.958-.73a5.361 5.361 0 0 1-2.063-2c-.5-.858-.75-1.822-.75-2.895 0-1.052.25-2.005.75-2.854a5.376 5.376 0 0 1 2.063-2.021c.885-.484 1.88-.73 2.979-.73.818 0 1.573.141 2.27.418a4.828 4.828 0 0 1 1.75 1.187l-.728.75c-.865-.875-1.953-1.312-3.271-1.312-.865 0-1.656.203-2.375.604a4.609 4.609 0 0 0-1.688 1.646c-.406.682-.604 1.453-.604 2.312 0 .865.198 1.64.604 2.333.417.698.98 1.245 1.688 1.646.719.407 1.51.604 2.375.604 1.333 0 2.422-.442 3.27-1.333l.73.75a4.887 4.887 0 0 1-1.771 1.208 6.011 6.011 0 0 1-2.27.417ZM42.168 18.63c-.791 0-1.51-.177-2.145-.541a4.006 4.006 0 0 1-1.521-1.5c-.365-.651-.542-1.38-.542-2.188 0-.802.177-1.526.542-2.167a4.081 4.081 0 0 1 1.52-1.5c.636-.359 1.355-.541 2.146-.541.803 0 1.526.182 2.167.541a3.989 3.989 0 0 1 1.5 1.5c.36.641.542 1.365.542 2.167 0 .807-.183 1.537-.542 2.188a3.916 3.916 0 0 1-1.5 1.5c-.64.364-1.364.541-2.167.541Zm0-1c.594 0 1.125-.13 1.584-.396.468-.26.838-.635 1.104-1.125.26-.5.396-1.067.396-1.708 0-.625-.136-1.177-.396-1.667a2.79 2.79 0 0 0-1.104-1.145c-.459-.277-.99-.417-1.584-.417-.583 0-1.114.14-1.583.417a2.926 2.926 0 0 0-1.104 1.145c-.266.49-.396 1.042-.396 1.667 0 .64.13 1.208.396 1.708.276.49.646.865 1.104 1.125.469.266 1 .396 1.583.396ZM52.8 14.234c.584.141 1.032.375 1.355.709.317.333.479.745.479 1.229 0 .49-.167.916-.5 1.291-.323.375-.766.667-1.333.875a5.446 5.446 0 0 1-1.875.313 6.406 6.406 0 0 1-1.771-.25 4.396 4.396 0 0 1-1.5-.792l.375-.833a4 4 0 0 0 1.312.667 5.24 5.24 0 0 0 1.542.229c.76 0 1.385-.136 1.875-.417.484-.291.73-.687.73-1.187 0-.427-.204-.771-.605-1.021-.39-.25-.932-.375-1.625-.375h-1.417v-.813h1.355c.609 0 1.104-.114 1.479-.354.385-.234.583-.552.583-.958 0-.443-.219-.792-.646-1.042-.416-.25-.974-.375-1.666-.375-.891 0-1.771.224-2.646.667l-.313-.854c.984-.51 2.01-.771 3.084-.771a5.03 5.03 0 0 1 1.687.27c.51.183.917.449 1.208.792.292.334.438.72.438 1.146 0 .432-.146.813-.438 1.146-.291.323-.682.557-1.166.708ZM65.245 17.568v2.979h-1.042v-2h-7.438v2h-1.041v-2.98h.458c.568-.025.948-.437 1.146-1.228.192-.792.333-1.896.416-3.313l.105-2.77h6.104v7.312h1.291Zm-6.48-4.48c-.057 1.183-.161 2.157-.312 2.917-.14.766-.396 1.287-.771 1.563h5.167v-6.313h-4l-.084 1.834ZM70.258 10.193c1.084 0 1.907.27 2.48.812.583.542.874 1.35.874 2.417v5.125H72.55v-1.292a2.78 2.78 0 0 1-1.125 1.021c-.49.24-1.063.354-1.73.354-.931 0-1.666-.218-2.207-.666-.542-.443-.813-1.026-.813-1.75 0-.709.25-1.276.75-1.709.51-.427 1.323-.646 2.438-.646h2.624v-.5c0-.708-.203-1.25-.604-1.625-.39-.375-.968-.562-1.729-.562-.531 0-1.036.094-1.52.27-.49.167-.907.407-1.25.71l-.5-.834c.416-.36.916-.636 1.5-.834a6.037 6.037 0 0 1 1.874-.291Zm-.395 7.541c.624 0 1.156-.135 1.604-.416.458-.292.797-.709 1.02-1.25v-1.354h-2.583c-1.432 0-2.146.494-2.146 1.479 0 .474.178.849.542 1.125.375.281.896.416 1.563.416ZM82.41 11.255h-3.124v7.292H78.16v-7.292h-3.125v-1h7.375v1ZM87.582 13.193c1.042.015 1.834.25 2.375.708.542.448.813 1.094.813 1.938 0 .875-.292 1.557-.875 2.041-.584.474-1.427.698-2.521.688l-3.354-.021v-8.292h1.125v2.896l2.437.042Zm-.27 4.52c.76.016 1.338-.135 1.729-.458.385-.317.583-.791.583-1.416 0-.61-.198-1.063-.583-1.355-.375-.291-.953-.442-1.73-.458l-2.166-.02v3.666l2.166.042ZM100.417 18.63c-.791 0-1.51-.177-2.145-.541a4.005 4.005 0 0 1-1.521-1.5c-.365-.651-.542-1.38-.542-2.188 0-.802.177-1.526.542-2.167a4.08 4.08 0 0 1 1.52-1.5c.636-.359 1.355-.541 2.146-.541.802 0 1.526.182 2.167.541a3.994 3.994 0 0 1 1.5 1.5c.359.641.542 1.365.542 2.167 0 .807-.183 1.537-.542 2.188a3.922 3.922 0 0 1-1.5 1.5c-.641.364-1.365.541-2.167.541Zm0-1c.594 0 1.125-.13 1.584-.396.468-.26.838-.635 1.104-1.125.26-.5.396-1.067.396-1.708 0-.625-.136-1.177-.396-1.667-.266-.5-.636-.88-1.104-1.145-.459-.277-.99-.417-1.584-.417-.583 0-1.114.14-1.583.417a2.926 2.926 0 0 0-1.104 1.145c-.266.49-.396 1.042-.396 1.667 0 .64.13 1.208.396 1.708.276.49.646.865 1.104 1.125.469.266 1 .396 1.583.396ZM114.445 10.255v8.292h-1.104v-7.292h-5.208v7.292h-1.125v-8.292h7.437ZM121.905 10.193a4.15 4.15 0 0 1 2.104.541 3.847 3.847 0 0 1 1.479 1.48c.359.64.542 1.37.542 2.187 0 .833-.183 1.573-.542 2.208a3.938 3.938 0 0 1-1.479 1.5c-.625.35-1.328.521-2.104.521-.683 0-1.292-.135-1.834-.416a3.269 3.269 0 0 1-1.312-1.23v4.625h-1.125V10.255h1.062v1.646a3.382 3.382 0 0 1 1.334-1.25 3.844 3.844 0 0 1 1.875-.458Zm-.084 7.437c.584 0 1.11-.13 1.584-.396.468-.26.838-.635 1.104-1.125.26-.5.396-1.067.396-1.708 0-.625-.136-1.177-.396-1.667a3 3 0 0 0-1.104-1.145c-.474-.277-1-.417-1.584-.417-.583 0-1.114.14-1.583.417a2.915 2.915 0 0 0-1.104 1.145c-.266.49-.396 1.042-.396 1.667 0 .64.13 1.208.396 1.708.26.49.63.865 1.104 1.125.469.266 1 .396 1.583.396ZM131.823 18.63c-.791 0-1.51-.177-2.146-.541a4.008 4.008 0 0 1-1.52-1.5c-.365-.651-.542-1.38-.542-2.188 0-.802.177-1.526.542-2.167a4.083 4.083 0 0 1 1.52-1.5c.636-.359 1.355-.541 2.146-.541.802 0 1.526.182 2.167.541a3.994 3.994 0 0 1 1.5 1.5c.359.641.542 1.365.542 2.167 0 .807-.183 1.537-.542 2.188a3.922 3.922 0 0 1-1.5 1.5c-.641.364-1.365.541-2.167.541Zm0-1c.594 0 1.125-.13 1.584-.396.468-.26.838-.635 1.104-1.125.26-.5.396-1.067.396-1.708 0-.625-.136-1.177-.396-1.667-.266-.5-.636-.88-1.104-1.145-.459-.277-.99-.417-1.584-.417-.583 0-1.114.14-1.583.417a2.927 2.927 0 0 0-1.104 1.145c-.266.49-.396 1.042-.396 1.667 0 .64.13 1.208.396 1.708.276.49.646.865 1.104 1.125.469.266 1 .396 1.583.396ZM141.893 18.63c-.823 0-1.557-.177-2.208-.541a4.003 4.003 0 0 1-1.521-1.5c-.365-.651-.542-1.38-.542-2.188 0-.802.177-1.526.542-2.167a4.079 4.079 0 0 1 1.521-1.5c.651-.359 1.385-.541 2.208-.541.708 0 1.338.14 1.896.416.567.282 1.01.688 1.333 1.23l-.833.562a2.604 2.604 0 0 0-1.042-.917 2.993 2.993 0 0 0-1.354-.312c-.599 0-1.141.14-1.625.417a2.87 2.87 0 0 0-1.125 1.145c-.266.49-.396 1.042-.396 1.667 0 .64.13 1.208.396 1.708.276.49.651.865 1.125 1.125a3.32 3.32 0 0 0 1.625.396 3.12 3.12 0 0 0 1.354-.291c.427-.209.776-.51 1.042-.917l.833.562a3.106 3.106 0 0 1-1.333 1.23c-.573.28-1.203.416-1.896.416Z" fill="#fff"/></svg>