<svg width="27" height="27" viewBox="0 0 27 27" fill="none" xmlns="http://www.w3.org/2000/svg">
	<mask id="mask0_1_3344" style="mask-type:alpha" maskUnits="userSpaceOnUse" x="0" y="0" width="27" height="27">
		<path d="M0.020874 0.25H26.0209V26.25H0.020874V0.25Z" fill="white"/>
	</mask>
	<g mask="url(#mask0_1_3344)">
		<path fill-rule="evenodd" clip-rule="evenodd" d="M26.0209 13.25C26.0209 20.4271 20.2032 26.25 13.0209 26.25C5.84379 26.25 0.020874 20.4271 0.020874 13.25C0.020874 6.06771 5.84379 0.25 13.0209 0.25C20.2032 0.25 26.0209 6.06771 26.0209 13.25ZM7.97921 8.83854C7.63025 8.83854 7.349 9.11979 7.349 9.46875V18.2917C7.349 18.6406 7.63025 18.9219 7.97921 18.9219H16.8021C17.1511 18.9219 17.4323 18.6406 17.4323 18.2917V11.6719H18.6927V18.2917C18.6927 19.3385 17.849 20.1823 16.8021 20.1823H7.97921C6.93754 20.1823 6.08858 19.3385 6.08858 18.2917V9.46875C6.08858 8.42188 6.93754 7.57812 7.97921 7.57812H14.599V8.83854H7.97921ZM17.6198 6.5C17.8646 6.25521 18.2657 6.25521 18.5105 6.5L19.7709 7.76042C20.0157 8.00521 20.0157 8.40625 19.7709 8.65104L14.7292 13.6927C14.6615 13.7656 14.573 13.8177 14.4792 13.849L12.5886 14.4792C12.3646 14.5521 12.1146 14.4948 11.948 14.3229C11.7761 14.1562 11.7188 13.9063 11.7917 13.6823L12.4219 11.7917C12.4532 11.6979 12.5052 11.6146 12.5782 11.5417L17.6198 6.5Z" fill="#B98CE8"/>
	</g>
</svg>

