<svg width="28" height="28" fill="none" xmlns="http://www.w3.org/2000/svg"><path d="M27.37 13.927c0 7.25-5.933 13.13-13.25 13.13-7.323 0-13.255-5.88-13.255-13.13C.865 6.672 6.797.792 14.12.792c7.317 0 13.25 5.88 13.25 13.135Z" fill="#B98CE8"/><path d="m21.443 19.797-2.485-2.459a6.744 6.744 0 0 0 1.339-4.036 6.772 6.772 0 0 0-2.021-4.838c-2.693-2.672-7.078-2.672-9.77 0a6.806 6.806 0 0 0 0 9.677 6.925 6.925 0 0 0 4.884 2 6.914 6.914 0 0 0 4.073-1.323l2.485 2.463c.203.203.474.308.745.308.27 0 .541-.105.75-.308a1.047 1.047 0 0 0 0-1.484ZM10 16.657a4.728 4.728 0 0 1 0-6.714 4.798 4.798 0 0 1 3.39-1.386c1.224 0 2.454.459 3.386 1.386a4.692 4.692 0 0 1 1.406 3.36c0 1.265-.5 2.457-1.406 3.353-1.865 1.854-4.906 1.854-6.776 0Z" fill="#F4F4F4"/></svg>