<svg width="46" height="47" viewBox="0 0 46 47" fill="none" xmlns="http://www.w3.org/2000/svg">
	<mask id="mask0_19_59" style="mask-type:alpha" maskUnits="userSpaceOnUse" x="0" y="0" width="46" height="47">
		<path d="M0 0.848999H46V46.849H0V0.848999Z" fill="white"/>
	</mask>
	<g mask="url(#mask0_19_59)">
		<path d="M23 0.848999C10.2969 0.848999 0 11.1459 0 23.849C0 36.5521 10.2969 46.849 23 46.849C35.6979 46.849 46 36.5521 46 23.849C46 11.1459 35.6979 0.848999 23 0.848999Z" fill="#B98CE8"/>
	</g>
	<mask id="mask1_19_59" style="mask-type:alpha" maskUnits="userSpaceOnUse" x="13" y="10" width="20" height="26">
		<path d="M13.7136 10.6406H32.7136V35.6406H13.7136V10.6406Z" fill="white"/>
	</mask>
	<g mask="url(#mask1_19_59)">
		<path d="M30.3229 18.974H29.1407V16.5938C29.1407 13.3073 26.4844 10.6406 23.2136 10.6406C19.9427 10.6406 17.2917 13.3073 17.2917 16.5938V18.974H16.1042C14.7969 18.974 13.7344 20.0365 13.7344 21.3542V33.2604C13.7344 34.5729 14.7969 35.6406 16.1042 35.6406H30.3229C31.6354 35.6406 32.6927 34.5729 32.6927 33.2604V21.3542C32.6927 20.0365 31.6354 18.974 30.3229 18.974ZM23.2136 29.6875C21.9063 29.6875 20.8438 28.6198 20.8438 27.3073C20.8438 25.9896 21.9063 24.9271 23.2136 24.9271C24.5261 24.9271 25.5834 25.9896 25.5834 27.3073C25.5834 28.6198 24.5261 29.6875 23.2136 29.6875ZM26.8907 18.974H19.5417V16.5938C19.5417 14.5573 21.1875 12.901 23.2136 12.901C25.2396 12.901 26.8907 14.5573 26.8907 16.5938V18.974Z" fill="white"/>
	</g>
</svg>
