<svg width="46" height="47" viewBox="0 0 46 47" fill="none" xmlns="http://www.w3.org/2000/svg">
	<mask id="mask0_19_60" style="mask-type:alpha" maskUnits="userSpaceOnUse" x="0" y="0" width="46" height="47">
		<path d="M0 0.255249H46V46.2552H0V0.255249Z" fill="white"/>
	</mask>
	<g mask="url(#mask0_19_60)">
		<path d="M23 0.255249C10.2969 0.255249 0 10.5521 0 23.2552C0 35.9584 10.2969 46.2552 23 46.2552C35.6979 46.2552 46 35.9584 46 23.2552C46 10.5521 35.6979 0.255249 23 0.255249Z" fill="#B98CE8"/>
	</g>
	<mask id="mask1_19_60" style="mask-type:alpha" maskUnits="userSpaceOnUse" x="12" y="10" width="21" height="30">
		<path d="M12.2969 10.6042H32.4896V39.0001H12.2969V10.6042Z" fill="white"/>
	</mask>
	<g mask="url(#mask1_19_60)">
		<path d="M18.4427 10.771C18.4427 10.771 12.3333 10.8543 12.4114 16.4272C12.4896 22.0002 13.6042 26.9272 15.4271 29.672C17.2552 32.4168 21.9375 39.6043 27.2552 38.8804C27.2552 38.8804 29.875 38.3127 31.8594 37.021L25.4271 31.9325C25.4271 31.9325 23.526 33.146 22.3333 31.5262C21.1406 29.9116 17.4114 22.4012 17.4114 22.4012C17.4114 22.4012 16.3802 19.9793 18.6823 18.9272L18.4427 10.771Z" fill="white"/>
	</g>
</svg>
