<svg width="46" height="47" viewBox="0 0 46 47" fill="none" xmlns="http://www.w3.org/2000/svg">
	<mask id="mask0_19_58" style="mask-type:alpha" maskUnits="userSpaceOnUse" x="0" y="0" width="46" height="47">
		<path d="M0 0.442749H46V46.4427H0V0.442749Z" fill="white"/>
	</mask>
	<g mask="url(#mask0_19_58)">
		<path d="M23 0.442749C10.2969 0.442749 0 10.7396 0 23.4427C0 36.1459 10.2969 46.4427 23 46.4427C35.6979 46.4427 46 36.1459 46 23.4427C46 10.7396 35.6979 0.442749 23 0.442749Z" fill="#B98CE8"/>
	</g>
	<mask id="mask1_19_58" style="mask-type:alpha" maskUnits="userSpaceOnUse" x="12" y="9" width="23" height="25">
		<path d="M12.0521 9.63025H34.8281V33.8802H12.0521V9.63025Z" fill="white"/>
	</mask>
	<g mask="url(#mask1_19_58)">
		<path d="M34.5052 31.2605L31.849 29.1146C31.375 28.7344 31.1042 28.1667 31.1042 27.573V19.9063C30.9844 19.9167 30.8698 19.9219 30.75 19.9219C27.9688 19.9219 25.7136 17.7136 25.7136 14.9948C25.7136 14.0625 25.974 13.1927 26.4375 12.448C26.1302 12.323 25.8177 12.2136 25.4948 12.125C25.5261 11.9896 25.5417 11.849 25.5417 11.7032C25.5417 10.5625 24.5938 9.63025 23.4271 9.63025C22.2552 9.63025 21.3073 10.5625 21.3073 11.7032C21.3073 11.849 21.3229 11.9896 21.349 12.125C18.1146 13.0105 15.7448 15.9167 15.7448 19.3594V27.573C15.7448 28.1667 15.474 28.7344 15 29.1146L12.3438 31.2605C12.1615 31.4115 12.0521 31.6355 12.0521 31.8698V32.8282C12.0521 33.2657 12.4115 33.6198 12.8594 33.6198H33.9896C34.4375 33.6198 34.7969 33.2657 34.7969 32.8282V31.8698C34.7969 31.6355 34.6875 31.4115 34.5052 31.2605Z" fill="white"/>
	</g>
	<mask id="mask2_19_58" style="mask-type:alpha" maskUnits="userSpaceOnUse" x="26" y="10" width="9" height="10">
		<path d="M26.5469 10.6667H34.8281V19.2397H26.5469V10.6667Z" fill="white"/>
	</mask>
	<g mask="url(#mask2_19_58)">
		<path d="M29.2187 13.4583L30.3125 12.6354C30.4531 12.5365 30.5677 12.4583 30.75 12.4583H31.2969C31.4114 12.4583 31.4844 12.526 31.4844 12.6354V17.276C31.4844 17.3854 31.4114 17.4531 31.2969 17.4531H30.6042C30.4948 17.4531 30.4219 17.3854 30.4219 17.276V13.6354H30.3854L29.6562 14.099C29.5833 14.1406 29.4844 14.125 29.4375 14.0625L29.1823 13.6719C29.1354 13.5937 29.1562 13.5052 29.2187 13.4583ZM26.6667 14.9948C26.6667 17.1979 28.4948 18.9844 30.75 18.9844C33 18.9844 34.8281 17.1979 34.8281 14.9948C34.8281 12.7865 33 11 30.75 11C28.4948 11 26.6667 12.7865 26.6667 14.9948Z" fill="white"/>
	</g>
</svg>

