<svg width="175" height="44" viewBox="0 0 175 44" fill="none" xmlns="http://www.w3.org/2000/svg">
	<path d="M10.9427 0.203125H163.286C166.188 0.203125 168.974 1.35417 171.026 3.40104C173.078 5.44792 174.229 8.22917 174.229 11.1198V32.9531C174.229 35.849 173.078 38.625 171.026 40.6719C168.974 42.724 166.188 43.8698 163.286 43.8698H10.9427C4.90104 43.8698 0 38.9844 0 32.9531V11.1198C0 5.09375 4.90104 0.203125 10.9427 0.203125Z" fill="#B98CE8"/>
	<path d="M29.3971 12.8718V31.5385H27.4388V22.9343H15.7721V31.5385H13.793V12.8718H15.7721V21.1843H27.4388V12.8718H29.3971Z" fill="white"/>
	<path d="M40.0526 17.4136C41.886 17.4136 43.287 17.8719 44.261 18.7886C45.2453 19.6948 45.7401 21.049 45.7401 22.8511V31.5386H43.9276V29.3511C43.4953 30.0907 42.8651 30.6584 42.0318 31.0594C41.2089 31.4657 40.2297 31.6636 39.0943 31.6636C37.537 31.6636 36.2922 31.299 35.3651 30.5594C34.4328 29.8094 33.9693 28.825 33.9693 27.6011C33.9693 26.4084 34.3964 25.45 35.261 24.7261C36.136 23.9917 37.511 23.6219 39.386 23.6219H43.8443V22.7677C43.8443 21.5594 43.5005 20.6427 42.8235 20.0177C42.1568 19.3823 41.1672 19.0594 39.8651 19.0594C38.9745 19.0594 38.1203 19.2052 37.3026 19.4969C36.4953 19.7886 35.7922 20.1948 35.1985 20.7052L34.3443 19.2886C35.0631 18.6948 35.9172 18.2365 36.9068 17.9136C37.9068 17.5802 38.9537 17.4136 40.0526 17.4136ZM39.386 30.1844C40.4537 30.1844 41.3703 29.9448 42.136 29.4552C42.8964 28.9552 43.4693 28.2469 43.8443 27.3302V25.0386H39.4485C37.0422 25.0386 35.8443 25.8719 35.8443 27.5386C35.8443 28.3615 36.1568 29.0073 36.7818 29.4761C37.4068 29.95 38.2714 30.1844 39.386 30.1844Z" fill="white"/>
	<path d="M56.6349 31.6636C55.2442 31.6636 53.9995 31.3667 52.9057 30.7677C51.8067 30.1584 50.9474 29.3094 50.3224 28.2261C49.7078 27.1323 49.4057 25.8927 49.4057 24.5177C49.4057 23.1584 49.7078 21.9344 50.3224 20.8511C50.9474 19.7677 51.8067 18.9292 52.9057 18.3302C53.9995 17.7209 55.2442 17.4136 56.6349 17.4136C57.8432 17.4136 58.9161 17.6532 59.864 18.1219C60.8224 18.5802 61.5724 19.2677 62.114 20.1844L60.7182 21.1427C60.2442 20.45 59.6557 19.9292 58.9474 19.5802C58.239 19.2365 57.4682 19.0594 56.6349 19.0594C55.6192 19.0594 54.7026 19.2886 53.8849 19.7469C53.0776 20.1948 52.4474 20.8407 51.989 21.6844C51.5411 22.5177 51.3224 23.4657 51.3224 24.5177C51.3224 25.6011 51.5411 26.5594 51.989 27.3927C52.4474 28.2157 53.0776 28.8511 53.8849 29.3094C54.7026 29.7677 55.6192 29.9969 56.6349 29.9969C57.4682 29.9969 58.239 29.8302 58.9474 29.4969C59.6557 29.1532 60.2442 28.6323 60.7182 27.9344L62.114 28.8927C61.5724 29.8094 60.8224 30.5073 59.864 30.9761C58.9057 31.4344 57.8276 31.6636 56.6349 31.6636Z" fill="white"/>
	<path d="M75.6423 19.1844H70.3298V31.5385H68.4339V19.1844H63.1423V17.5177H75.6423V19.1844Z" fill="white"/>
	<path d="M85.6257 17.4136C86.9277 17.4136 88.1152 17.7157 89.1882 18.3094C90.2559 18.8927 91.0892 19.7365 91.6882 20.8302C92.2975 21.9136 92.6048 23.1427 92.6048 24.5177C92.6048 25.924 92.2975 27.174 91.6882 28.2677C91.0892 29.3511 90.2611 30.1948 89.209 30.7886C88.1517 31.3719 86.959 31.6636 85.6257 31.6636C84.485 31.6636 83.459 31.4344 82.5423 30.9761C81.6257 30.5073 80.8757 29.8094 80.2923 28.8927V36.7052H78.3965V17.5177H80.209V20.2886C80.7767 19.3615 81.5267 18.6532 82.459 18.1636C83.3861 17.6636 84.4434 17.4136 85.6257 17.4136ZM85.4798 29.9969C86.4642 29.9969 87.3548 29.7677 88.1465 29.3094C88.9486 28.8511 89.5736 28.2052 90.0215 27.3719C90.4798 26.5386 90.709 25.5907 90.709 24.5177C90.709 23.4657 90.4798 22.5282 90.0215 21.7052C89.5736 20.8719 88.9486 20.2261 88.1465 19.7677C87.3548 19.299 86.4642 19.0594 85.4798 19.0594C84.4902 19.0594 83.6048 19.299 82.8132 19.7677C82.0215 20.2261 81.3965 20.8719 80.9382 21.7052C80.4798 22.5282 80.2507 23.4657 80.2507 24.5177C80.2507 25.5907 80.4798 26.5386 80.9382 27.3719C81.3965 28.2052 82.0215 28.8511 82.8132 29.3094C83.6048 29.7677 84.4902 29.9969 85.4798 29.9969Z" fill="white"/>
	<path d="M102.453 31.6636C101.104 31.6636 99.8805 31.3615 98.7867 30.7469C97.7034 30.1375 96.8492 29.2886 96.2242 28.2052C95.6096 27.1219 95.3076 25.8927 95.3076 24.5177C95.3076 23.1584 95.6096 21.9344 96.2242 20.8511C96.8492 19.7677 97.7034 18.9292 98.7867 18.3302C99.8805 17.7209 101.104 17.4136 102.453 17.4136C103.797 17.4136 105.016 17.7209 106.099 18.3302C107.183 18.9292 108.026 19.7677 108.641 20.8511C109.266 21.9344 109.578 23.1584 109.578 24.5177C109.578 25.8927 109.266 27.1219 108.641 28.2052C108.026 29.2886 107.183 30.1375 106.099 30.7469C105.016 31.3615 103.797 31.6636 102.453 31.6636ZM102.453 29.9969C103.453 29.9969 104.349 29.7677 105.141 29.3094C105.933 28.8511 106.547 28.2052 106.995 27.3719C107.438 26.5386 107.662 25.5907 107.662 24.5177C107.662 23.4657 107.438 22.5177 106.995 21.6844C106.547 20.8407 105.933 20.1948 105.141 19.7469C104.349 19.2886 103.453 19.0594 102.453 19.0594C101.453 19.0594 100.558 19.2886 99.7659 19.7469C98.9742 20.1948 98.3492 20.8407 97.8909 21.6844C97.443 22.5177 97.2242 23.4657 97.2242 24.5177C97.2242 25.5907 97.443 26.5386 97.8909 27.3719C98.3492 28.2052 98.9742 28.8511 99.7659 29.3094C100.558 29.7677 101.453 29.9969 102.453 29.9969Z" fill="white"/>
	<path d="M113.615 17.5177H115.511V28.6635L124.865 17.5177H126.553V31.5385H124.657V20.3927L115.323 31.5385H113.615V17.5177ZM119.99 15.4969C118.782 15.4969 117.813 15.2 117.094 14.601C116.386 13.9917 116.021 13.1323 116.011 12.0177H117.365C117.391 12.7156 117.641 13.2677 118.115 13.6844C118.599 14.101 119.224 14.3094 119.99 14.3094C120.75 14.3094 121.375 14.101 121.865 13.6844C122.349 13.2677 122.605 12.7156 122.636 12.0177H123.99C123.974 13.1323 123.605 13.9917 122.886 14.601C122.162 15.2 121.198 15.4969 119.99 15.4969Z" fill="white"/>
	<path d="M137.059 25.2885H133.85V31.5385H131.954V17.5177H133.85V23.6635H137.079L142.017 17.5177H144.059L138.538 24.3094L144.475 31.5385H142.225L137.059 25.2885Z" fill="white"/>
	<path d="M147.442 17.5177H149.338V28.6635L158.692 17.5177H160.379V31.5385H158.483V20.3927L149.15 31.5385H147.442V17.5177Z" fill="white"/>
</svg>
