<svg width="35" height="33" viewBox="0 0 35 33" fill="none" xmlns="http://www.w3.org/2000/svg">
	<mask id="mask0_19_48" style="mask-type:alpha" maskUnits="userSpaceOnUse" x="5" y="6" width="26" height="27">
		<path d="M5 6H30.3333V32.9115H5V6Z" fill="white"/>
	</mask>
	<g mask="url(#mask0_19_48)">
		<path d="M29.1667 17.1771L17.2345 6.66669L5.29175 17.1823V32.2084C5.29175 32.5938 5.60946 32.9063 5.99487 32.9063H13.4584V26.3177C13.4584 25.9323 13.7709 25.6198 14.1615 25.6198H20.2917C20.6824 25.6198 20.9949 25.9323 20.9949 26.3177V32.9063H28.4584C28.849 32.9063 29.1615 32.5938 29.1615 32.2084V17.1771H29.1667Z" fill="#B98CE8"/>
	</g>
	<mask id="mask1_19_48" style="mask-type:alpha" maskUnits="userSpaceOnUse" x="0" y="0" width="35" height="18">
		<path d="M0.229248 0.911499H34.2292V18H0.229248V0.911499Z" fill="white"/>
	</mask>
	<g mask="url(#mask1_19_48)">
		<path d="M17.1615 0.916687L0.229248 15.8281L2.0105 17.8281L17.2292 4.4271L32.448 17.8281L34.2292 15.8281L17.297 0.916687L17.2345 0.989604L17.1615 0.916687Z" fill="#B98CE8"/>
	</g>
	<path d="M5.29175 3.0625H9.58342L9.54696 5.58854L5.29175 9.41667V3.0625Z" fill="#B98CE8"/>
</svg>
