<svg width="34" height="33" viewBox="0 0 34 33" fill="none" xmlns="http://www.w3.org/2000/svg">
	<path d="M29.7135 17.125C29.7188 16.9688 29.8385 16.7865 29.9792 16.7188L32.8542 15.3177C32.9948 15.25 33.0885 15.0729 33.0625 14.9167L32.401 11.9479C32.3594 11.8021 32.1927 11.6719 32.0365 11.6615L28.7708 11.4532C28.6146 11.4479 28.4271 11.3229 28.3542 11.1875L27.9115 10.3959C27.8281 10.2604 27.8281 10.0417 27.9115 9.91149L29.5625 7.20315C29.6406 7.07294 29.6198 6.86982 29.5156 6.75524L27.2969 4.5469C27.1771 4.44274 26.9688 4.4219 26.8333 4.49482L23.9896 6.03128C23.849 6.10419 23.625 6.09899 23.4896 6.02086L22.724 5.59899C22.5833 5.52607 22.4635 5.33857 22.4583 5.18753L22.3438 2.01565C22.3385 1.8594 22.2083 1.69794 22.0573 1.65628L18.9792 0.937527C18.8229 0.911486 18.6354 1.00003 18.5573 1.13544L17.0312 3.90107C16.9531 4.03649 16.8281 4.15107 16.75 4.14586H16.6771C16.2344 4.14586 15.6458 4.18753 15.6458 4.18753C15.4896 4.20315 15.2865 4.1094 15.1979 3.97919L13.3281 1.36461C13.2396 1.23961 13.0417 1.16669 12.8854 1.20836L9.94792 2.1719C9.80208 2.22919 9.69271 2.40107 9.70312 2.55732L9.95312 5.66669C9.96354 5.82294 9.86458 6.01565 9.73438 6.09899L8.79688 6.72919C8.67188 6.82294 8.44792 6.84899 8.30208 6.78649L5.27604 5.56774C5.13021 5.51044 4.92188 5.55732 4.81771 5.6719L2.93229 7.94794C2.83854 8.07294 2.83854 8.27607 2.9375 8.39586L4.86458 10.8698C4.96354 10.9948 4.98438 11.2084 4.92188 11.349L4.39583 12.5677C4.33854 12.7136 4.16667 12.8542 4.01042 12.8802L0.796875 13.4479C0.640626 13.474 0.494793 13.6198 0.46875 13.7709C0.46875 13.7709 0.15625 15.6927 0.15625 16.8438V16.849C0.15625 16.8542 0.276042 16.9011 0.427083 16.9532L3.42188 18.0209C3.57292 18.0729 3.71354 18.2396 3.73438 18.3959L4.01562 19.8854C4.05208 20.0365 3.98437 20.2448 3.86979 20.349L1.49479 22.5C1.38021 22.6042 1.33854 22.8021 1.40104 22.9427L2.69792 25.3854C2.77604 25.5209 2.96875 25.599 3.125 25.5677L6.25 24.8854C6.40625 24.849 6.61458 24.9167 6.71875 25.0313L7.875 26.1979C7.98958 26.3073 8.05208 26.5157 8.01042 26.6615L7.21354 29.6979C7.17708 29.849 7.25521 30.0365 7.38542 30.1198L9.82812 31.4584C9.96875 31.5261 10.1771 31.4948 10.2865 31.3854L12.5521 29.1511C12.6615 29.0417 12.8802 28.9844 13.0312 29.0261L14.6406 29.3698C14.7969 29.4011 14.9635 29.5417 15.0156 29.6875L16.026 32.6407C16.0729 32.7865 16.2448 32.9063 16.401 32.9115C16.401 32.9115 16.4896 32.9115 16.6771 32.9115C17.6458 32.9115 19.2396 32.7136 19.2396 32.7136C19.3958 32.6927 19.5521 32.5521 19.5833 32.4011L20.25 29.3073C20.2813 29.1563 20.4323 28.9948 20.5833 28.9479L22 28.4219C22.1458 28.3646 22.3646 28.3959 22.4896 28.4896L24.974 30.4375C25.0938 30.5365 25.3021 30.5417 25.4323 30.4584L27.7656 28.7344C27.8854 28.6354 27.9375 28.4375 27.8854 28.2917L26.7188 25.3229C26.6667 25.1771 26.6979 24.9584 26.7969 24.8386L27.5677 23.8177C27.6563 23.6927 27.8594 23.599 28.0156 23.6146L31.1927 23.9479C31.349 23.9636 31.5313 23.8646 31.5938 23.724L32.6354 20.9532C32.6823 20.8021 32.6146 20.6094 32.4844 20.5157L29.849 18.625C29.724 18.5313 29.6302 18.3334 29.6458 18.1771L29.7135 17.125ZM16.6354 26.2657C11.3177 26.2657 7.00521 22.0729 7.00521 16.9011C7.00521 11.7292 11.3177 7.53649 16.6354 7.53649C21.9479 7.53649 26.2604 11.7292 26.2604 16.9011C26.2604 22.0729 21.9479 26.2657 16.6354 26.2657Z" fill="#B98CE8"/>
</svg>
